<svg width="100" height="100" viewBox="0 0 100 100" fill="none" xmlns="http://www.w3.org/2000/svg">
<path d="M15.4658 56.3331C15.4658 60.7664 16.9992 64.5664 20.0992 67.7664C23.1992 70.9664 26.9658 72.6664 31.4325 72.8664C31.7992 72.8664 31.9992 72.6664 31.9992 72.2998V67.8331C31.9992 67.4664 31.7992 67.2664 31.4325 67.2664C28.5658 67.1331 26.1658 65.9998 24.1658 63.8664C22.1658 61.7331 21.1658 59.2331 21.1658 56.3331C21.1658 53.5664 22.0992 51.1998 23.9658 49.1331C25.8325 47.0998 28.1658 45.8998 30.9325 45.5664L32.6992 45.4664C33.1325 45.4664 33.3658 45.2664 33.3658 44.8331L33.5658 43.0664C33.9325 39.4664 35.4325 36.4331 38.1325 34.0331C40.8325 31.5998 43.9992 30.3998 47.6325 30.3998C51.2658 30.3998 54.4325 31.5998 57.1325 34.0331C59.8325 36.4664 61.3658 39.4664 61.7658 43.0664L62.0325 44.9998C62.0325 45.3664 62.2325 45.5664 62.6325 45.5664H67.9992C70.9658 45.5664 73.5325 46.6331 75.6992 48.7664C77.8658 50.8998 78.9658 53.3998 78.9658 56.3331C78.9658 59.2331 77.9658 61.7331 75.9658 63.8664C73.9658 65.9998 71.5325 67.1331 68.6992 67.2664C68.2658 67.2664 68.0325 67.4664 68.0325 67.8331V72.2998C68.0325 72.6664 68.2658 72.8664 68.6992 72.8664C71.5992 72.7998 74.2658 71.9998 76.6992 70.4998C79.1325 68.9998 81.0658 66.9998 82.4658 64.4998C83.8658 61.9998 84.5658 59.2664 84.5658 56.3664C84.5658 53.3998 83.8325 50.6331 82.3325 48.1331C80.8658 45.6331 78.8325 43.6331 76.2992 42.1998C73.7658 40.7664 70.9658 39.9998 67.9992 39.9998H66.9325C65.8658 35.5331 63.4992 31.8998 59.9325 29.0664C56.3658 26.2331 52.2658 24.7998 47.6658 24.7998C42.9658 24.7998 38.7992 26.2664 35.1658 29.1664C31.5325 32.0664 29.1992 35.7998 28.1658 40.3331C24.4658 41.1998 21.4325 43.0998 19.0658 46.0998C16.6992 49.0998 15.4658 52.4998 15.4658 56.3331ZM33.6325 80.3331C33.9325 81.0331 34.4658 81.5664 35.1658 81.8664C35.8325 82.1998 36.5325 82.2331 37.2325 81.9331C37.9658 81.6331 38.4325 81.1331 38.7325 80.4331C39.0658 79.6998 39.0992 78.9998 38.7992 78.2998C38.5325 77.5998 37.9992 77.1331 37.2992 76.8331C36.6325 76.4664 35.9658 76.4331 35.2658 76.7331C34.5658 77.0331 34.0658 77.5331 33.7325 78.2998C33.3658 78.8664 33.3658 79.5331 33.6325 80.3331ZM35.7325 70.9331C35.7325 71.4664 35.8992 71.9664 36.2325 72.4331C36.5658 72.9331 37.0992 73.2664 37.7658 73.4998C38.3992 73.8664 39.0992 73.8998 39.8325 73.5331C40.5658 73.1998 41.0658 72.5331 41.2992 71.5331L44.2992 60.2664C44.4992 59.4331 44.4325 58.6998 44.0325 58.0331C43.6325 57.3664 43.0658 56.9664 42.2658 56.8331C41.9992 56.7664 41.7325 56.7331 41.4658 56.7331C40.9325 56.7331 40.3992 56.8998 39.8992 57.2331C39.3992 57.5664 39.0325 58.0664 38.8325 58.6998L35.8992 69.9998C35.7658 70.5331 35.7325 70.8331 35.7325 70.9331ZM41.9325 89.5664C41.9325 89.9664 41.9992 90.2998 42.1325 90.5331C42.4325 91.2664 42.9325 91.7664 43.6325 92.0331C43.9325 92.1998 44.2992 92.2998 44.7325 92.2998C44.9325 92.2998 45.2658 92.2331 45.7325 92.0998C46.4658 91.8331 46.9992 91.3331 47.2992 90.5998C47.6325 89.8664 47.6325 89.1331 47.2992 88.3998C46.9658 87.6664 46.4658 87.1664 45.7992 86.8664C45.1325 86.5664 44.4658 86.5664 43.7325 86.8664C43.0992 87.1331 42.6658 87.5331 42.3658 88.0664C42.0658 88.5998 41.9325 89.0998 41.9325 89.5664ZM44.3658 80.8664C44.3658 82.0998 45.0658 82.8998 46.4658 83.2998C46.8325 83.3998 47.0992 83.4331 47.2658 83.4331C47.7658 83.4331 48.1992 83.3331 48.5325 83.1664C49.2325 82.8998 49.6992 82.2664 49.9325 81.2664L55.4992 60.2998C55.6992 59.4998 55.6325 58.7998 55.2992 58.1331C54.9658 57.4998 54.3992 57.0664 53.6658 56.8664C53.3992 56.7998 53.0992 56.7664 52.7658 56.7664C52.2325 56.7664 51.6992 56.9331 51.1658 57.2664C50.6325 57.5998 50.2992 58.0998 50.1658 58.7331L44.4658 79.8664C44.3992 80.3331 44.3658 80.6664 44.3658 80.8664ZM55.7992 79.3331C55.7992 79.7331 55.8658 80.0998 56.0658 80.3998C56.3325 81.0331 56.8325 81.5331 57.5325 81.8664C57.8992 81.9998 58.2992 82.0998 58.6992 82.0998C58.8992 82.0998 59.2325 82.0331 59.6992 81.8998C60.3992 81.6331 60.9325 81.1331 61.2325 80.4331C61.4658 79.6998 61.4658 78.9998 61.1992 78.3331C60.9325 77.6664 60.4658 77.1664 59.7992 76.8331C59.0325 76.4664 58.3325 76.4331 57.6325 76.7331C56.9325 77.0331 56.4325 77.5331 56.0992 78.2998C55.8992 78.6331 55.7992 78.9664 55.7992 79.3331ZM58.2325 70.7664C58.2325 71.2331 58.3992 71.7331 58.7658 72.2664C59.1325 72.7998 59.6325 73.1664 60.2658 73.3664C60.7992 73.4664 61.0992 73.5331 61.1658 73.5331C61.4658 73.5331 61.8992 73.4331 62.3992 73.1998C63.0658 72.8998 63.4992 72.2998 63.7325 71.4664L66.7325 60.3331C66.7992 59.7664 66.8325 59.4664 66.8325 59.4664C66.8325 58.9331 66.6658 58.4331 66.3325 57.9331C65.9992 57.4331 65.4992 57.0998 64.8325 56.8998C64.5325 56.8331 64.2325 56.7998 63.9658 56.7998C63.4325 56.7998 62.8992 56.9664 62.3992 57.2998C61.8992 57.6331 61.5658 58.1331 61.3658 58.7998L58.3658 69.9998L58.2325 70.7664Z" fill="white"/>
</svg>
