<svg width="100" height="100" viewBox="0 0 100 100" fill="none" xmlns="http://www.w3.org/2000/svg">
<path d="M12.9639 58.6668C12.9639 55.3668 13.9972 52.4002 16.0639 49.8335C18.1305 47.2668 20.7639 45.6002 23.9972 44.8668C24.8639 40.9668 26.8305 37.7335 29.9305 35.2668C33.0305 32.7668 36.5972 31.5335 40.6639 31.5335C44.5972 31.5335 48.1305 32.7335 51.1972 35.1668C54.2972 37.6002 56.2972 40.7002 57.1972 44.5002H58.0972C62.0305 44.5002 65.3639 45.8668 68.1305 48.6335C70.8972 51.4002 72.2972 54.7335 72.2972 58.6335C72.2972 62.5668 70.8972 65.9002 68.1305 68.6668C65.3639 71.4335 62.0305 72.8335 58.0972 72.8335H27.1972C25.2639 72.8335 23.4305 72.4668 21.6972 71.7002C19.9639 70.9335 18.3972 70.0002 17.1305 68.7335C15.8639 67.4668 14.8639 65.9335 14.0972 64.2002C13.3305 62.4668 12.9639 60.5668 12.9639 58.6668ZM17.7972 58.6668C17.7972 61.2002 18.7305 63.4002 20.5305 65.2002C22.3305 67.0002 24.5639 67.9335 27.1639 67.9335H58.0972C60.6639 67.9335 62.8972 67.0335 64.7305 65.2002C66.5639 63.3668 67.4972 61.2002 67.4972 58.6668C67.4972 56.1335 66.5972 53.9335 64.7305 52.1335C62.8972 50.3335 60.6972 49.4002 58.0972 49.4002H53.4639C53.1305 49.4002 52.9639 49.2335 52.9639 48.9002L52.7305 47.2668C52.3972 44.1335 51.0639 41.5002 48.7639 39.4335C46.4639 37.3668 43.7305 36.3335 40.5972 36.3335C37.4639 36.3335 34.7305 37.3668 32.3972 39.4668C30.0639 41.5335 28.7639 44.1668 28.4639 47.2668L28.2305 48.6668C28.2305 49.0002 28.0639 49.1668 27.6972 49.1668L26.1972 49.4002C23.7972 49.6002 21.7972 50.6002 20.1639 52.3668C18.6305 54.1335 17.7972 56.2335 17.7972 58.6668ZM47.2972 29.6002C46.9639 29.9002 47.0305 30.1335 47.5305 30.3002C48.9639 30.9335 50.1639 31.5335 51.1305 32.1335C51.4972 32.2335 51.7639 32.2002 51.8639 32.0335C53.8972 30.1335 56.2305 29.1668 58.9305 29.1668C61.6305 29.1668 63.9305 30.0668 65.9305 31.8668C67.8972 33.6668 68.9972 35.9002 69.2305 38.5335L69.5305 40.6668H74.2639C76.4305 40.6668 78.2972 41.4335 79.8639 43.0002C81.4305 44.5668 82.1972 46.4002 82.1972 48.5335C82.1972 50.5335 81.4972 52.2668 80.1305 53.7668C78.7639 55.2668 77.0639 56.1002 75.0305 56.3335C74.6972 56.3335 74.5305 56.5002 74.5305 56.8668V60.6335C74.5305 61.0002 74.6972 61.1668 75.0305 61.1668C78.3972 60.9668 81.2305 59.6335 83.5305 57.2002C85.8305 54.7668 86.9972 51.8668 86.9972 48.5335C86.9972 45.0002 85.7639 42.0002 83.2639 39.5335C80.7639 37.0335 77.7639 35.8002 74.2639 35.8002H73.7639C72.8972 32.4668 71.0639 29.7335 68.2639 27.5668C65.4972 25.4002 62.3639 24.3335 58.9305 24.3335C54.2639 24.3002 50.3639 26.0668 47.2972 29.6002Z" fill="white"/>
</svg>
