<svg width="100" height="100" viewBox="0 0 100 100" fill="none" xmlns="http://www.w3.org/2000/svg">
<path d="M5.2002 56.3332C5.2002 59.3332 5.93353 62.0998 7.4002 64.6332C8.86687 67.1665 10.8668 69.1665 13.4002 70.6332C15.9335 72.0998 18.6668 72.8332 21.6335 72.8332H57.7335C60.7002 72.8332 63.4668 72.0998 66.0002 70.6332C68.5335 69.1665 70.5668 67.1665 72.0335 64.6332C73.5002 62.0998 74.2668 59.3332 74.2668 56.3332C74.2668 54.1332 73.8002 51.8998 72.8668 49.6665C75.4002 46.5998 76.6668 42.8998 76.6668 38.6665C76.6668 36.2998 76.2002 34.0332 75.3002 31.8665C74.4002 29.6998 73.1335 27.8665 71.5668 26.2998C70.0002 24.7332 68.1668 23.4665 66.0002 22.5665C63.8335 21.6332 61.5668 21.1998 59.2002 21.1998C54.2668 21.1998 49.9668 23.1332 46.2668 26.9998C43.7002 25.5332 40.7002 24.7998 37.2668 24.7998C32.5668 24.7998 28.4335 26.2665 24.8335 29.1665C21.2335 32.0665 18.9002 35.7998 17.9002 40.3332C14.1668 41.1998 11.1335 43.0998 8.76686 46.0998C6.40019 49.0998 5.2002 52.4998 5.2002 56.3332ZM10.9002 56.3332C10.9002 53.5332 11.8335 51.1332 13.7002 49.0998C15.5668 47.0665 17.9002 45.8998 20.7002 45.5665L22.3668 45.4665C22.7668 45.4665 23.0002 45.2665 23.0002 44.8665L23.2335 43.0665C23.7002 39.4665 25.2668 36.4332 27.9335 34.0332C30.6002 31.5998 33.7335 30.3998 37.3001 30.3998C40.9668 30.3998 44.1668 31.6332 46.8668 34.0665C49.6002 36.4998 51.1002 39.4998 51.4335 43.0998L51.6668 45.0332C51.7335 45.3998 51.9668 45.5998 52.3668 45.5998H57.7335C60.6668 45.5998 63.2002 46.6665 65.3335 48.7998C67.4668 50.9332 68.5335 53.4332 68.5335 56.3665C68.5335 59.3998 67.4668 61.9665 65.3668 64.0998C63.2668 66.2332 60.7002 67.2998 57.7668 67.2998H21.6335C18.7002 67.2998 16.2002 66.2332 14.0668 64.0665C11.9668 61.8998 10.9002 59.3332 10.9002 56.3332ZM33.2335 15.4332C33.2335 16.2332 33.5002 16.9332 34.0335 17.5332L36.2335 19.6665C37.0668 20.2998 37.7668 20.5665 38.3668 20.4998C39.0668 20.4998 39.6668 20.1998 40.2002 19.6332C40.7335 19.0665 41.0002 18.3665 41.0002 17.5665C41.0002 16.7665 40.7002 16.0998 40.1335 15.5998L38.1668 13.3998C37.5668 12.8665 36.9002 12.5998 36.1335 12.5998C35.3335 12.5998 34.6335 12.8665 34.0668 13.4332C33.5002 13.9665 33.2335 14.6332 33.2335 15.4332ZM51.0335 30.1998C53.3335 27.9665 56.0668 26.8665 59.2002 26.8665C62.5002 26.8665 65.3002 27.9998 67.6002 30.2998C69.9002 32.5998 71.0668 35.3665 71.0668 38.6665C71.0668 40.7332 70.5002 42.7998 69.3668 44.7998C66.1335 41.5998 62.2668 39.9998 57.7335 39.9998H56.6668C55.8335 36.3665 53.9668 33.0998 51.0335 30.1998ZM56.4668 12.5998C56.4668 13.4665 56.7335 14.1332 57.2335 14.6665C57.7335 15.1998 58.4002 15.4332 59.2002 15.4332C60.0668 15.4332 60.7335 15.1665 61.2668 14.6665C61.8002 14.1332 62.0335 13.4665 62.0335 12.5998V5.76653C62.0335 4.96653 61.7668 4.3332 61.2335 3.79986C60.7002 3.26653 60.0335 3.0332 59.2002 3.0332C58.4002 3.0332 57.7668 3.29986 57.2335 3.79986C56.7002 4.29986 56.4668 4.96653 56.4668 5.76653V12.5998ZM74.8668 20.2332C74.8668 21.0998 75.1002 21.7665 75.6002 22.2998C76.3002 22.8332 77.0002 23.0998 77.6668 23.0998C78.2668 23.0998 78.9335 22.8332 79.6335 22.2998L84.4002 17.5332C84.9335 16.9332 85.2002 16.2332 85.2002 15.3998C85.2002 14.5998 84.9335 13.9332 84.4002 13.3998C83.8668 12.8665 83.2002 12.5998 82.4335 12.5998C81.6335 12.5998 81.0002 12.8665 80.5002 13.3998L75.6002 18.1665C75.1002 18.7998 74.8668 19.4665 74.8668 20.2332ZM77.5002 59.6998C77.5002 60.4998 77.7668 61.1998 78.3335 61.7998L80.5002 63.8998C81.0002 64.4332 81.6335 64.6998 82.4335 64.6998C83.2335 64.6998 83.9002 64.4332 84.4335 63.8665C84.9668 63.2998 85.2335 62.6332 85.2335 61.7998C85.2335 61.0665 84.9668 60.3998 84.4335 59.8665L82.2668 57.6998C81.7335 57.1665 81.1002 56.8998 80.3668 56.8998C79.5668 56.8998 78.9002 57.1665 78.3668 57.6998C77.8002 58.2332 77.5002 58.8998 77.5002 59.6998ZM82.4002 38.6665C82.4002 39.4332 82.7002 40.0665 83.2668 40.5998C83.8002 41.1332 84.5002 41.3998 85.3002 41.3998H92.1002C92.8668 41.3998 93.5002 41.1332 94.0335 40.6332C94.5668 40.1332 94.8002 39.4665 94.8002 38.6665C94.8002 37.8665 94.5335 37.1998 94.0335 36.6665C93.5335 36.1332 92.8668 35.8332 92.1002 35.8332H85.3002C84.5002 35.8332 83.8335 36.0998 83.2668 36.6665C82.6668 37.2332 82.4002 37.8998 82.4002 38.6665Z" fill="white"/>
</svg>
