<svg width="81" height="80" viewBox="0 0 81 80" fill="none" xmlns="http://www.w3.org/2000/svg">
<path d="M4.46582 36.3331C4.46582 40.7664 5.99922 44.5664 9.09922 47.7664C12.1992 50.9664 15.9658 52.6664 20.4325 52.8664C20.7992 52.8664 20.9992 52.6664 20.9992 52.2998V47.8331C20.9992 47.4664 20.7992 47.2664 20.4325 47.2664C17.5658 47.1331 15.1658 45.9998 13.1658 43.8664C11.1658 41.7331 10.1658 39.2331 10.1658 36.3331C10.1658 33.5664 11.0992 31.1998 12.9658 29.1331C14.8325 27.0998 17.1658 25.8998 19.9325 25.5664L21.6992 25.4664C22.1325 25.4664 22.3658 25.2664 22.3658 24.8331L22.5658 23.0664C22.9325 19.4664 24.4325 16.4331 27.1325 14.0331C29.8325 11.5998 32.9992 10.3998 36.6325 10.3998C40.2658 10.3998 43.4325 11.5998 46.1325 14.0331C48.8325 16.4664 50.3658 19.4664 50.7658 23.0664L51.0325 24.9998C51.0325 25.3664 51.2325 25.5664 51.6325 25.5664H56.9992C59.9658 25.5664 62.5325 26.6331 64.6992 28.7664C66.8658 30.8998 67.9658 33.3998 67.9658 36.3331C67.9658 39.2331 66.9658 41.7331 64.9658 43.8664C62.9658 45.9998 60.5325 47.1331 57.6992 47.2664C57.2658 47.2664 57.0325 47.4664 57.0325 47.8331V52.2998C57.0325 52.6664 57.2658 52.8664 57.6992 52.8664C60.5992 52.7998 63.2658 51.9998 65.6992 50.4998C68.1325 48.9998 70.0658 46.9998 71.4658 44.4998C72.8658 41.9998 73.5658 39.2664 73.5658 36.3664C73.5658 33.3998 72.8325 30.6331 71.3325 28.1331C69.8658 25.6331 67.8325 23.6331 65.2992 22.1998C62.7658 20.7664 59.9658 19.9998 56.9992 19.9998H55.9325C54.8658 15.5331 52.4992 11.8998 48.9325 9.0664C45.3658 6.2331 41.2658 4.7998 36.6658 4.7998C31.9658 4.7998 27.7992 6.2664 24.1658 9.1664C20.5325 12.0664 18.1992 15.7998 17.1658 20.3331C13.4658 21.1998 10.4325 23.0998 8.06582 26.0998C5.69922 29.0998 4.46582 32.4998 4.46582 36.3331ZM22.6325 60.3331C22.9325 61.0331 23.4658 61.5664 24.1658 61.8664C24.8325 62.1998 25.5325 62.2331 26.2325 61.9331C26.9658 61.6331 27.4325 61.1331 27.7325 60.4331C28.0658 59.6998 28.0992 58.9998 27.7992 58.2998C27.5325 57.5998 26.9992 57.1331 26.2992 56.8331C25.6325 56.4664 24.9658 56.4331 24.2658 56.7331C23.5658 57.0331 23.0658 57.5331 22.7325 58.2998C22.3658 58.8664 22.3658 59.5331 22.6325 60.3331ZM24.7325 50.9331C24.7325 51.4664 24.8992 51.9664 25.2325 52.4331C25.5658 52.9331 26.0992 53.2664 26.7658 53.4998C27.3992 53.8664 28.0992 53.8998 28.8325 53.5331C29.5658 53.1998 30.0658 52.5331 30.2992 51.5331L33.2992 40.2664C33.4992 39.4331 33.4325 38.6998 33.0325 38.0331C32.6325 37.3664 32.0658 36.9664 31.2658 36.8331C30.9992 36.7664 30.7325 36.7331 30.4658 36.7331C29.9325 36.7331 29.3992 36.8998 28.8992 37.2331C28.3992 37.5664 28.0325 38.0664 27.8325 38.6998L24.8992 49.9998C24.7658 50.5331 24.7325 50.8331 24.7325 50.9331ZM30.9325 69.5664C30.9325 69.9664 30.9992 70.2998 31.1325 70.5331C31.4325 71.2664 31.9325 71.7664 32.6325 72.0331C32.9325 72.1998 33.2992 72.2998 33.7325 72.2998C33.9325 72.2998 34.2658 72.2331 34.7325 72.0998C35.4658 71.8331 35.9992 71.3331 36.2992 70.5998C36.6325 69.8664 36.6325 69.1331 36.2992 68.3998C35.9658 67.6664 35.4658 67.1664 34.7992 66.8664C34.1325 66.5664 33.4658 66.5664 32.7325 66.8664C32.0992 67.1331 31.6658 67.5331 31.3658 68.0664C31.0658 68.5998 30.9325 69.0998 30.9325 69.5664ZM33.3658 60.8664C33.3658 62.0998 34.0658 62.8998 35.4658 63.2998C35.8325 63.3998 36.0992 63.4331 36.2658 63.4331C36.7658 63.4331 37.1992 63.3331 37.5325 63.1664C38.2325 62.8998 38.6992 62.2664 38.9325 61.2664L44.4992 40.2998C44.6992 39.4998 44.6325 38.7998 44.2992 38.1331C43.9658 37.4998 43.3992 37.0664 42.6658 36.8664C42.3992 36.7998 42.0992 36.7664 41.7658 36.7664C41.2325 36.7664 40.6992 36.9331 40.1658 37.2664C39.6325 37.5998 39.2992 38.0998 39.1658 38.7331L33.4658 59.8664C33.3992 60.3331 33.3658 60.6664 33.3658 60.8664ZM44.7992 59.3331C44.7992 59.7331 44.8658 60.0998 45.0658 60.3998C45.3325 61.0331 45.8325 61.5331 46.5325 61.8664C46.8992 61.9998 47.2992 62.0998 47.6992 62.0998C47.8992 62.0998 48.2325 62.0331 48.6992 61.8998C49.3992 61.6331 49.9325 61.1331 50.2325 60.4331C50.4658 59.6998 50.4658 58.9998 50.1992 58.3331C49.9325 57.6664 49.4658 57.1664 48.7992 56.8331C48.0325 56.4664 47.3325 56.4331 46.6325 56.7331C45.9325 57.0331 45.4325 57.5331 45.0992 58.2998C44.8992 58.6331 44.7992 58.9664 44.7992 59.3331ZM47.2325 50.7664C47.2325 51.2331 47.3992 51.7331 47.7658 52.2664C48.1325 52.7998 48.6325 53.1664 49.2658 53.3664C49.7992 53.4664 50.0992 53.5331 50.1658 53.5331C50.4658 53.5331 50.8992 53.4331 51.3992 53.1998C52.0658 52.8998 52.4992 52.2998 52.7325 51.4664L55.7325 40.3331C55.7992 39.7664 55.8325 39.4664 55.8325 39.4664C55.8325 38.9331 55.6658 38.4331 55.3325 37.9331C54.9992 37.4331 54.4992 37.0998 53.8325 36.8998C53.5325 36.8331 53.2325 36.7998 52.9658 36.7998C52.4325 36.7998 51.8992 36.9664 51.3992 37.2998C50.8992 37.6331 50.5658 38.1331 50.3658 38.7998L47.3658 49.9998L47.2325 50.7664Z" fill="white"/>
<path d="M4.46582 36.3331C4.46582 40.7664 5.99922 44.5664 9.09922 47.7664C12.1992 50.9664 15.9658 52.6664 20.4325 52.8664C20.7992 52.8664 20.9992 52.6664 20.9992 52.2998V47.8331C20.9992 47.4664 20.7992 47.2664 20.4325 47.2664C17.5658 47.1331 15.1658 45.9998 13.1658 43.8664C11.1658 41.7331 10.1658 39.2331 10.1658 36.3331C10.1658 33.5664 11.0992 31.1998 12.9658 29.1331C14.8325 27.0998 17.1658 25.8998 19.9325 25.5664L21.6992 25.4664C22.1325 25.4664 22.3658 25.2664 22.3658 24.8331L22.5658 23.0664C22.9325 19.4664 24.4325 16.4331 27.1325 14.0331C29.8325 11.5998 32.9992 10.3998 36.6325 10.3998C40.2658 10.3998 43.4325 11.5998 46.1325 14.0331C48.8325 16.4664 50.3658 19.4664 50.7658 23.0664L51.0325 24.9998C51.0325 25.3664 51.2325 25.5664 51.6325 25.5664H56.9992C59.9658 25.5664 62.5325 26.6331 64.6992 28.7664C66.8658 30.8998 67.9658 33.3998 67.9658 36.3331C67.9658 39.2331 66.9658 41.7331 64.9658 43.8664C62.9658 45.9998 60.5325 47.1331 57.6992 47.2664C57.2658 47.2664 57.0325 47.4664 57.0325 47.8331V52.2998C57.0325 52.6664 57.2658 52.8664 57.6992 52.8664C60.5992 52.7998 63.2658 51.9998 65.6992 50.4998C68.1325 48.9998 70.0658 46.9998 71.4658 44.4998C72.8658 41.9998 73.5658 39.2664 73.5658 36.3664C73.5658 33.3998 72.8325 30.6331 71.3325 28.1331C69.8658 25.6331 67.8325 23.6331 65.2992 22.1998C62.7658 20.7664 59.9658 19.9998 56.9992 19.9998H55.9325C54.8658 15.5331 52.4992 11.8998 48.9325 9.0664C45.3658 6.2331 41.2658 4.7998 36.6658 4.7998C31.9658 4.7998 27.7992 6.2664 24.1658 9.1664C20.5325 12.0664 18.1992 15.7998 17.1658 20.3331C13.4658 21.1998 10.4325 23.0998 8.06582 26.0998C5.69922 29.0998 4.46582 32.4998 4.46582 36.3331ZM22.6325 60.3331C22.9325 61.0331 23.4658 61.5664 24.1658 61.8664C24.8325 62.1998 25.5325 62.2331 26.2325 61.9331C26.9658 61.6331 27.4325 61.1331 27.7325 60.4331C28.0658 59.6998 28.0992 58.9998 27.7992 58.2998C27.5325 57.5998 26.9992 57.1331 26.2992 56.8331C25.6325 56.4664 24.9658 56.4331 24.2658 56.7331C23.5658 57.0331 23.0658 57.5331 22.7325 58.2998C22.3658 58.8664 22.3658 59.5331 22.6325 60.3331ZM24.7325 50.9331C24.7325 51.4664 24.8992 51.9664 25.2325 52.4331C25.5658 52.9331 26.0992 53.2664 26.7658 53.4998C27.3992 53.8664 28.0992 53.8998 28.8325 53.5331C29.5658 53.1998 30.0658 52.5331 30.2992 51.5331L33.2992 40.2664C33.4992 39.4331 33.4325 38.6998 33.0325 38.0331C32.6325 37.3664 32.0658 36.9664 31.2658 36.8331C30.9992 36.7664 30.7325 36.7331 30.4658 36.7331C29.9325 36.7331 29.3992 36.8998 28.8992 37.2331C28.3992 37.5664 28.0325 38.0664 27.8325 38.6998L24.8992 49.9998C24.7658 50.5331 24.7325 50.8331 24.7325 50.9331ZM30.9325 69.5664C30.9325 69.9664 30.9992 70.2998 31.1325 70.5331C31.4325 71.2664 31.9325 71.7664 32.6325 72.0331C32.9325 72.1998 33.2992 72.2998 33.7325 72.2998C33.9325 72.2998 34.2658 72.2331 34.7325 72.0998C35.4658 71.8331 35.9992 71.3331 36.2992 70.5998C36.6325 69.8664 36.6325 69.1331 36.2992 68.3998C35.9658 67.6664 35.4658 67.1664 34.7992 66.8664C34.1325 66.5664 33.4658 66.5664 32.7325 66.8664C32.0992 67.1331 31.6658 67.5331 31.3658 68.0664C31.0658 68.5998 30.9325 69.0998 30.9325 69.5664ZM33.3658 60.8664C33.3658 62.0998 34.0658 62.8998 35.4658 63.2998C35.8325 63.3998 36.0992 63.4331 36.2658 63.4331C36.7658 63.4331 37.1992 63.3331 37.5325 63.1664C38.2325 62.8998 38.6992 62.2664 38.9325 61.2664L44.4992 40.2998C44.6992 39.4998 44.6325 38.7998 44.2992 38.1331C43.9658 37.4998 43.3992 37.0664 42.6658 36.8664C42.3992 36.7998 42.0992 36.7664 41.7658 36.7664C41.2325 36.7664 40.6992 36.9331 40.1658 37.2664C39.6325 37.5998 39.2992 38.0998 39.1658 38.7331L33.4658 59.8664C33.3992 60.3331 33.3658 60.6664 33.3658 60.8664ZM44.7992 59.3331C44.7992 59.7331 44.8658 60.0998 45.0658 60.3998C45.3325 61.0331 45.8325 61.5331 46.5325 61.8664C46.8992 61.9998 47.2992 62.0998 47.6992 62.0998C47.8992 62.0998 48.2325 62.0331 48.6992 61.8998C49.3992 61.6331 49.9325 61.1331 50.2325 60.4331C50.4658 59.6998 50.4658 58.9998 50.1992 58.3331C49.9325 57.6664 49.4658 57.1664 48.7992 56.8331C48.0325 56.4664 47.3325 56.4331 46.6325 56.7331C45.9325 57.0331 45.4325 57.5331 45.0992 58.2998C44.8992 58.6331 44.7992 58.9664 44.7992 59.3331ZM47.2325 50.7664C47.2325 51.2331 47.3992 51.7331 47.7658 52.2664C48.1325 52.7998 48.6325 53.1664 49.2658 53.3664C49.7992 53.4664 50.0992 53.5331 50.1658 53.5331C50.4658 53.5331 50.8992 53.4331 51.3992 53.1998C52.0658 52.8998 52.4992 52.2998 52.7325 51.4664L55.7325 40.3331C55.7992 39.7664 55.8325 39.4664 55.8325 39.4664C55.8325 38.9331 55.6658 38.4331 55.3325 37.9331C54.9992 37.4331 54.4992 37.0998 53.8325 36.8998C53.5325 36.8331 53.2325 36.7998 52.9658 36.7998C52.4325 36.7998 51.8992 36.9664 51.3992 37.2998C50.8992 37.6331 50.5658 38.1331 50.3658 38.7998L47.3658 49.9998L47.2325 50.7664Z" fill="url(#paint0_linear_2033_1021)"/>
<defs>
<linearGradient id="paint0_linear_2033_1021" x1="10.715" y1="115.05" x2="54.6285" y2="25.6064" gradientUnits="userSpaceOnUse">
<stop stop-color="#02020A"/>
<stop offset="1" stop-color="#124DF1"/>
</linearGradient>
</defs>
</svg>
