<svg width="100" height="100" viewBox="0 0 100 100" fill="none" xmlns="http://www.w3.org/2000/svg">
<path d="M24.8691 48.034C24.8691 47.4007 25.1024 46.834 25.5358 46.3674C25.9691 45.9007 26.5024 45.6674 27.1358 45.6674C27.7691 45.6674 28.3358 45.9007 28.7691 46.3674C29.2024 46.834 29.4358 47.3674 29.4358 48.034C29.4358 48.6674 29.2024 49.2007 28.7691 49.634C28.3358 50.0674 27.7691 50.3007 27.1691 50.3007C26.5691 50.3007 26.0024 50.0674 25.5691 49.634C25.0691 49.1674 24.8691 48.634 24.8691 48.034ZM31.4691 48.034C31.4691 47.4007 31.7024 46.834 32.1358 46.3674C32.5691 45.9007 33.1024 45.6674 33.7358 45.6674H44.5024L36.9024 38.0674C36.4358 37.6674 36.2024 37.134 36.2024 36.5007C36.2024 35.8674 36.4358 35.334 36.9024 34.8674C37.3691 34.4007 37.9024 34.1674 38.5358 34.1674C39.1691 34.1674 39.7024 34.4007 40.1691 34.8674L47.7358 42.434V31.734C47.7358 31.1007 47.9691 30.534 48.4358 30.0674C48.9024 29.6007 49.4358 29.3674 50.1024 29.3674C50.7358 29.3674 51.2691 29.6007 51.7024 30.0674C52.1358 30.534 52.3691 31.0674 52.3691 31.734V42.5007L60.0024 34.834C60.4691 34.3674 61.0024 34.134 61.6024 34.134C62.2024 34.134 62.7691 34.3674 63.2358 34.834C63.6358 35.3007 63.8358 35.834 63.8358 36.4674C63.8358 37.1007 63.6358 37.634 63.2358 38.034L55.6358 45.634H66.4024C67.0024 45.634 67.5358 45.8674 67.9691 46.334C68.4024 46.8007 68.6358 47.334 68.6358 48.0007C68.6358 48.6007 68.4024 49.134 67.9691 49.5674C67.5358 50.0007 67.0024 50.234 66.4024 50.234H55.6358L63.2691 57.8674C63.6691 58.2674 63.8691 58.8007 63.8691 59.434C63.8691 60.0674 63.6691 60.6007 63.2691 61.0674C62.8024 61.534 62.2358 61.7674 61.6358 61.7674C61.0358 61.7674 60.4691 61.534 60.0358 61.0674L52.4024 53.4007V64.2007C52.4024 64.834 52.1691 65.4007 51.7358 65.834C51.3024 66.2674 50.7691 66.5007 50.1358 66.5007C49.5024 66.5007 48.9358 66.2674 48.4691 65.834C48.0024 65.4007 47.7691 64.834 47.7691 64.2007V53.4674L40.2024 61.034C39.7358 61.5007 39.2024 61.734 38.5691 61.734C37.9358 61.734 37.4024 61.5007 36.9358 61.034C36.4691 60.5674 36.2358 60.034 36.2358 59.4007C36.2358 58.7674 36.4691 58.2674 36.9358 57.834L44.6024 50.2007H33.8024C33.1691 50.2007 32.6358 49.9674 32.2024 49.534C31.6691 49.1674 31.4691 48.634 31.4691 48.034ZM31.5024 64.1674C31.5024 63.5674 31.7358 63.0007 32.2024 62.5674C32.6024 62.1007 33.1358 61.8674 33.7691 61.8674C34.4024 61.8674 34.9358 62.1007 35.4024 62.5674C35.8691 63.034 36.1024 63.5674 36.1024 64.1674C36.1024 64.7674 35.8691 65.334 35.4024 65.7674C34.9358 66.234 34.4024 66.4674 33.7691 66.4674C33.1358 66.4674 32.6024 66.234 32.2024 65.7674C31.7358 65.334 31.5024 64.8007 31.5024 64.1674ZM31.5024 31.8007C31.5024 31.2007 31.7358 30.634 32.2024 30.2007C32.6024 29.734 33.1358 29.5007 33.7691 29.5007C34.4024 29.5007 34.9358 29.734 35.4024 30.2007C35.8691 30.6674 36.1024 31.2007 36.1024 31.8007C36.1024 32.4007 35.8691 32.9674 35.4024 33.434C34.9358 33.9007 34.4024 34.134 33.7691 34.134C33.1358 34.134 32.6024 33.9007 32.2024 33.434C31.7358 32.9674 31.5024 32.4007 31.5024 31.8007ZM47.6691 70.834C47.6691 70.234 47.9024 69.7007 48.3691 69.2674C48.8358 68.834 49.3691 68.6007 50.0358 68.6007C50.6691 68.6007 51.2024 68.834 51.6358 69.2674C52.0691 69.7007 52.3024 70.234 52.3024 70.834C52.3024 71.4674 52.0691 72.034 51.6358 72.4674C51.2024 72.9007 50.6691 73.134 50.0358 73.134C49.4024 73.134 48.8358 72.9007 48.3691 72.4674C47.9024 72.034 47.6691 71.5007 47.6691 70.834ZM47.6691 25.134C47.6691 24.5007 47.9024 23.934 48.3691 23.5007C48.8358 23.0674 49.3691 22.834 50.0358 22.834C50.6691 22.834 51.2024 23.0674 51.6358 23.5007C52.0691 23.934 52.3024 24.5007 52.3024 25.134C52.3024 25.734 52.0691 26.2674 51.6358 26.7007C51.2024 27.134 50.6691 27.3674 50.0358 27.3674C49.4024 27.3674 48.8358 27.134 48.3691 26.7007C47.9024 26.2674 47.6691 25.734 47.6691 25.134ZM63.9024 64.1674C63.9024 63.5674 64.1358 63.0007 64.6024 62.5674C65.0024 62.1007 65.5358 61.8674 66.1691 61.8674C66.8024 61.8674 67.3358 62.1007 67.8024 62.5674C68.2691 63.034 68.5024 63.5674 68.5024 64.1674C68.5024 64.7674 68.2691 65.334 67.8024 65.7674C67.3358 66.234 66.8024 66.4674 66.1691 66.4674C65.5358 66.4674 65.0024 66.234 64.6024 65.7674C64.1358 65.334 63.9024 64.8007 63.9024 64.1674ZM63.9024 31.8007C63.9024 31.2007 64.1358 30.634 64.6024 30.2007C65.0024 29.734 65.5358 29.5007 66.1691 29.5007C66.8024 29.5007 67.3358 29.734 67.8024 30.2007C68.2691 30.6674 68.5024 31.2007 68.5024 31.8007C68.5024 32.4007 68.2691 32.9674 67.8024 33.434C67.3358 33.9007 66.8024 34.134 66.1691 34.134C65.5358 34.134 65.0024 33.9007 64.6024 33.434C64.1358 32.9674 63.9024 32.4007 63.9024 31.8007ZM70.5691 48.034C70.5691 47.4007 70.8024 46.834 71.2358 46.3674C71.6691 45.9007 72.2358 45.6674 72.8691 45.6674C73.4691 45.6674 74.0024 45.9007 74.4358 46.3674C74.8691 46.834 75.1024 47.3674 75.1024 48.034C75.1024 48.634 74.8691 49.1674 74.4358 49.6007C74.0024 50.034 73.4691 50.2674 72.8691 50.2674C72.2358 50.2674 71.6691 50.034 71.2358 49.6007C70.8024 49.1674 70.5691 48.634 70.5691 48.034Z" fill="#124DF1"/>
</svg>
