<svg width="66" height="63" viewBox="0 0 66 63" fill="none" xmlns="http://www.w3.org/2000/svg">
<path d="M7.86914 32.034C7.86914 31.4007 8.10244 30.834 8.53584 30.3674C8.96914 29.9007 9.50244 29.6674 10.1358 29.6674C10.7691 29.6674 11.3358 29.9007 11.7691 30.3674C12.2024 30.834 12.4358 31.3674 12.4358 32.034C12.4358 32.6674 12.2024 33.2007 11.7691 33.634C11.3358 34.0674 10.7691 34.3007 10.1691 34.3007C9.56914 34.3007 9.00244 34.0674 8.56914 33.634C8.06914 33.1674 7.86914 32.634 7.86914 32.034ZM14.4691 32.034C14.4691 31.4007 14.7024 30.834 15.1358 30.3674C15.5691 29.9007 16.1024 29.6674 16.7358 29.6674H27.5024L19.9024 22.0674C19.4358 21.6674 19.2024 21.134 19.2024 20.5007C19.2024 19.8674 19.4358 19.334 19.9024 18.8674C20.3691 18.4007 20.9024 18.1674 21.5358 18.1674C22.1691 18.1674 22.7024 18.4007 23.1691 18.8674L30.7358 26.434V15.734C30.7358 15.1007 30.9691 14.534 31.4358 14.0674C31.9024 13.6007 32.4358 13.3674 33.1024 13.3674C33.7358 13.3674 34.2691 13.6007 34.7024 14.0674C35.1358 14.534 35.3691 15.0674 35.3691 15.734V26.5007L43.0024 18.834C43.4691 18.3674 44.0024 18.134 44.6024 18.134C45.2024 18.134 45.7691 18.3674 46.2358 18.834C46.6358 19.3007 46.8358 19.834 46.8358 20.4674C46.8358 21.1007 46.6358 21.634 46.2358 22.034L38.6358 29.634H49.4024C50.0024 29.634 50.5358 29.8674 50.9691 30.334C51.4024 30.8007 51.6358 31.334 51.6358 32.0007C51.6358 32.6007 51.4024 33.134 50.9691 33.5674C50.5358 34.0007 50.0024 34.234 49.4024 34.234H38.6358L46.2691 41.8674C46.6691 42.2674 46.8691 42.8007 46.8691 43.434C46.8691 44.0674 46.6691 44.6007 46.2691 45.0674C45.8024 45.534 45.2358 45.7674 44.6358 45.7674C44.0358 45.7674 43.4691 45.534 43.0358 45.0674L35.4024 37.4007V48.2007C35.4024 48.834 35.1691 49.4007 34.7358 49.834C34.3024 50.2674 33.7691 50.5007 33.1358 50.5007C32.5024 50.5007 31.9358 50.2674 31.4691 49.834C31.0024 49.4007 30.7691 48.834 30.7691 48.2007V37.4674L23.2024 45.034C22.7358 45.5007 22.2024 45.734 21.5691 45.734C20.9358 45.734 20.4024 45.5007 19.9358 45.034C19.4691 44.5674 19.2358 44.034 19.2358 43.4007C19.2358 42.7674 19.4691 42.2674 19.9358 41.834L27.6024 34.2007H16.8024C16.1691 34.2007 15.6358 33.9674 15.2024 33.534C14.6691 33.1674 14.4691 32.634 14.4691 32.034ZM14.5024 48.1674C14.5024 47.5674 14.7358 47.0007 15.2024 46.5674C15.6024 46.1007 16.1358 45.8674 16.7691 45.8674C17.4024 45.8674 17.9358 46.1007 18.4024 46.5674C18.8691 47.034 19.1024 47.5674 19.1024 48.1674C19.1024 48.7674 18.8691 49.334 18.4024 49.7674C17.9358 50.234 17.4024 50.4674 16.7691 50.4674C16.1358 50.4674 15.6024 50.234 15.2024 49.7674C14.7358 49.334 14.5024 48.8007 14.5024 48.1674ZM14.5024 15.8007C14.5024 15.2007 14.7358 14.634 15.2024 14.2007C15.6024 13.734 16.1358 13.5007 16.7691 13.5007C17.4024 13.5007 17.9358 13.734 18.4024 14.2007C18.8691 14.6674 19.1024 15.2007 19.1024 15.8007C19.1024 16.4007 18.8691 16.9674 18.4024 17.434C17.9358 17.9007 17.4024 18.134 16.7691 18.134C16.1358 18.134 15.6024 17.9007 15.2024 17.434C14.7358 16.9674 14.5024 16.4007 14.5024 15.8007ZM30.6691 54.834C30.6691 54.234 30.9024 53.7007 31.3691 53.2674C31.8358 52.834 32.3691 52.6007 33.0358 52.6007C33.6691 52.6007 34.2024 52.834 34.6358 53.2674C35.0691 53.7007 35.3024 54.234 35.3024 54.834C35.3024 55.4674 35.0691 56.034 34.6358 56.4674C34.2024 56.9007 33.6691 57.134 33.0358 57.134C32.4024 57.134 31.8358 56.9007 31.3691 56.4674C30.9024 56.034 30.6691 55.5007 30.6691 54.834ZM30.6691 9.13399C30.6691 8.50069 30.9024 7.93398 31.3691 7.50068C31.8358 7.06738 32.3691 6.83398 33.0358 6.83398C33.6691 6.83398 34.2024 7.06738 34.6358 7.50068C35.0691 7.93398 35.3024 8.50069 35.3024 9.13399C35.3024 9.73399 35.0691 10.2674 34.6358 10.7007C34.2024 11.134 33.6691 11.3674 33.0358 11.3674C32.4024 11.3674 31.8358 11.134 31.3691 10.7007C30.9024 10.2674 30.6691 9.73399 30.6691 9.13399ZM46.9024 48.1674C46.9024 47.5674 47.1358 47.0007 47.6024 46.5674C48.0024 46.1007 48.5358 45.8674 49.1691 45.8674C49.8024 45.8674 50.3358 46.1007 50.8024 46.5674C51.2691 47.034 51.5024 47.5674 51.5024 48.1674C51.5024 48.7674 51.2691 49.334 50.8024 49.7674C50.3358 50.234 49.8024 50.4674 49.1691 50.4674C48.5358 50.4674 48.0024 50.234 47.6024 49.7674C47.1358 49.334 46.9024 48.8007 46.9024 48.1674ZM46.9024 15.8007C46.9024 15.2007 47.1358 14.634 47.6024 14.2007C48.0024 13.734 48.5358 13.5007 49.1691 13.5007C49.8024 13.5007 50.3358 13.734 50.8024 14.2007C51.2691 14.6674 51.5024 15.2007 51.5024 15.8007C51.5024 16.4007 51.2691 16.9674 50.8024 17.434C50.3358 17.9007 49.8024 18.134 49.1691 18.134C48.5358 18.134 48.0024 17.9007 47.6024 17.434C47.1358 16.9674 46.9024 16.4007 46.9024 15.8007ZM53.5691 32.034C53.5691 31.4007 53.8024 30.834 54.2358 30.3674C54.6691 29.9007 55.2358 29.6674 55.8691 29.6674C56.4691 29.6674 57.0024 29.9007 57.4358 30.3674C57.8691 30.834 58.1024 31.3674 58.1024 32.034C58.1024 32.634 57.8691 33.1674 57.4358 33.6007C57.0024 34.034 56.4691 34.2674 55.8691 34.2674C55.2358 34.2674 54.6691 34.034 54.2358 33.6007C53.8024 33.1674 53.5691 32.634 53.5691 32.034Z" fill="white"/>
<path d="M7.86914 32.034C7.86914 31.4007 8.10244 30.834 8.53584 30.3674C8.96914 29.9007 9.50244 29.6674 10.1358 29.6674C10.7691 29.6674 11.3358 29.9007 11.7691 30.3674C12.2024 30.834 12.4358 31.3674 12.4358 32.034C12.4358 32.6674 12.2024 33.2007 11.7691 33.634C11.3358 34.0674 10.7691 34.3007 10.1691 34.3007C9.56914 34.3007 9.00244 34.0674 8.56914 33.634C8.06914 33.1674 7.86914 32.634 7.86914 32.034ZM14.4691 32.034C14.4691 31.4007 14.7024 30.834 15.1358 30.3674C15.5691 29.9007 16.1024 29.6674 16.7358 29.6674H27.5024L19.9024 22.0674C19.4358 21.6674 19.2024 21.134 19.2024 20.5007C19.2024 19.8674 19.4358 19.334 19.9024 18.8674C20.3691 18.4007 20.9024 18.1674 21.5358 18.1674C22.1691 18.1674 22.7024 18.4007 23.1691 18.8674L30.7358 26.434V15.734C30.7358 15.1007 30.9691 14.534 31.4358 14.0674C31.9024 13.6007 32.4358 13.3674 33.1024 13.3674C33.7358 13.3674 34.2691 13.6007 34.7024 14.0674C35.1358 14.534 35.3691 15.0674 35.3691 15.734V26.5007L43.0024 18.834C43.4691 18.3674 44.0024 18.134 44.6024 18.134C45.2024 18.134 45.7691 18.3674 46.2358 18.834C46.6358 19.3007 46.8358 19.834 46.8358 20.4674C46.8358 21.1007 46.6358 21.634 46.2358 22.034L38.6358 29.634H49.4024C50.0024 29.634 50.5358 29.8674 50.9691 30.334C51.4024 30.8007 51.6358 31.334 51.6358 32.0007C51.6358 32.6007 51.4024 33.134 50.9691 33.5674C50.5358 34.0007 50.0024 34.234 49.4024 34.234H38.6358L46.2691 41.8674C46.6691 42.2674 46.8691 42.8007 46.8691 43.434C46.8691 44.0674 46.6691 44.6007 46.2691 45.0674C45.8024 45.534 45.2358 45.7674 44.6358 45.7674C44.0358 45.7674 43.4691 45.534 43.0358 45.0674L35.4024 37.4007V48.2007C35.4024 48.834 35.1691 49.4007 34.7358 49.834C34.3024 50.2674 33.7691 50.5007 33.1358 50.5007C32.5024 50.5007 31.9358 50.2674 31.4691 49.834C31.0024 49.4007 30.7691 48.834 30.7691 48.2007V37.4674L23.2024 45.034C22.7358 45.5007 22.2024 45.734 21.5691 45.734C20.9358 45.734 20.4024 45.5007 19.9358 45.034C19.4691 44.5674 19.2358 44.034 19.2358 43.4007C19.2358 42.7674 19.4691 42.2674 19.9358 41.834L27.6024 34.2007H16.8024C16.1691 34.2007 15.6358 33.9674 15.2024 33.534C14.6691 33.1674 14.4691 32.634 14.4691 32.034ZM14.5024 48.1674C14.5024 47.5674 14.7358 47.0007 15.2024 46.5674C15.6024 46.1007 16.1358 45.8674 16.7691 45.8674C17.4024 45.8674 17.9358 46.1007 18.4024 46.5674C18.8691 47.034 19.1024 47.5674 19.1024 48.1674C19.1024 48.7674 18.8691 49.334 18.4024 49.7674C17.9358 50.234 17.4024 50.4674 16.7691 50.4674C16.1358 50.4674 15.6024 50.234 15.2024 49.7674C14.7358 49.334 14.5024 48.8007 14.5024 48.1674ZM14.5024 15.8007C14.5024 15.2007 14.7358 14.634 15.2024 14.2007C15.6024 13.734 16.1358 13.5007 16.7691 13.5007C17.4024 13.5007 17.9358 13.734 18.4024 14.2007C18.8691 14.6674 19.1024 15.2007 19.1024 15.8007C19.1024 16.4007 18.8691 16.9674 18.4024 17.434C17.9358 17.9007 17.4024 18.134 16.7691 18.134C16.1358 18.134 15.6024 17.9007 15.2024 17.434C14.7358 16.9674 14.5024 16.4007 14.5024 15.8007ZM30.6691 54.834C30.6691 54.234 30.9024 53.7007 31.3691 53.2674C31.8358 52.834 32.3691 52.6007 33.0358 52.6007C33.6691 52.6007 34.2024 52.834 34.6358 53.2674C35.0691 53.7007 35.3024 54.234 35.3024 54.834C35.3024 55.4674 35.0691 56.034 34.6358 56.4674C34.2024 56.9007 33.6691 57.134 33.0358 57.134C32.4024 57.134 31.8358 56.9007 31.3691 56.4674C30.9024 56.034 30.6691 55.5007 30.6691 54.834ZM30.6691 9.13399C30.6691 8.50069 30.9024 7.93398 31.3691 7.50068C31.8358 7.06738 32.3691 6.83398 33.0358 6.83398C33.6691 6.83398 34.2024 7.06738 34.6358 7.50068C35.0691 7.93398 35.3024 8.50069 35.3024 9.13399C35.3024 9.73399 35.0691 10.2674 34.6358 10.7007C34.2024 11.134 33.6691 11.3674 33.0358 11.3674C32.4024 11.3674 31.8358 11.134 31.3691 10.7007C30.9024 10.2674 30.6691 9.73399 30.6691 9.13399ZM46.9024 48.1674C46.9024 47.5674 47.1358 47.0007 47.6024 46.5674C48.0024 46.1007 48.5358 45.8674 49.1691 45.8674C49.8024 45.8674 50.3358 46.1007 50.8024 46.5674C51.2691 47.034 51.5024 47.5674 51.5024 48.1674C51.5024 48.7674 51.2691 49.334 50.8024 49.7674C50.3358 50.234 49.8024 50.4674 49.1691 50.4674C48.5358 50.4674 48.0024 50.234 47.6024 49.7674C47.1358 49.334 46.9024 48.8007 46.9024 48.1674ZM46.9024 15.8007C46.9024 15.2007 47.1358 14.634 47.6024 14.2007C48.0024 13.734 48.5358 13.5007 49.1691 13.5007C49.8024 13.5007 50.3358 13.734 50.8024 14.2007C51.2691 14.6674 51.5024 15.2007 51.5024 15.8007C51.5024 16.4007 51.2691 16.9674 50.8024 17.434C50.3358 17.9007 49.8024 18.134 49.1691 18.134C48.5358 18.134 48.0024 17.9007 47.6024 17.434C47.1358 16.9674 46.9024 16.4007 46.9024 15.8007ZM53.5691 32.034C53.5691 31.4007 53.8024 30.834 54.2358 30.3674C54.6691 29.9007 55.2358 29.6674 55.8691 29.6674C56.4691 29.6674 57.0024 29.9007 57.4358 30.3674C57.8691 30.834 58.1024 31.3674 58.1024 32.034C58.1024 32.634 57.8691 33.1674 57.4358 33.6007C57.0024 34.034 56.4691 34.2674 55.8691 34.2674C55.2358 34.2674 54.6691 34.034 54.2358 33.6007C53.8024 33.1674 53.5691 32.634 53.5691 32.034Z" fill="url(#paint0_linear_2033_1019)"/>
<defs>
<linearGradient id="paint0_linear_2033_1019" x1="12.4121" y1="88.9907" x2="45.6285" y2="22.9894" gradientUnits="userSpaceOnUse">
<stop stop-color="#02020A"/>
<stop offset="1" stop-color="#124DF1"/>
</linearGradient>
</defs>
</svg>
