<svg width="85" height="59" viewBox="0 0 85 59" fill="none" xmlns="http://www.w3.org/2000/svg">
<path d="M5.96387 38.6668C5.96387 35.3668 6.99717 32.4002 9.06387 29.8335C11.1305 27.2668 13.7639 25.6002 16.9972 24.8668C17.8639 20.9668 19.8305 17.7335 22.9305 15.2668C26.0305 12.7668 29.5972 11.5335 33.6639 11.5335C37.5972 11.5335 41.1305 12.7335 44.1972 15.1668C47.2972 17.6002 49.2972 20.7002 50.1972 24.5002H51.0972C55.0305 24.5002 58.3639 25.8668 61.1305 28.6335C63.8972 31.4002 65.2972 34.7335 65.2972 38.6335C65.2972 42.5668 63.8972 45.9002 61.1305 48.6668C58.3639 51.4335 55.0305 52.8335 51.0972 52.8335H20.1972C18.2639 52.8335 16.4305 52.4668 14.6972 51.7002C12.9639 50.9335 11.3972 50.0002 10.1305 48.7335C8.86387 47.4668 7.86387 45.9335 7.09717 44.2002C6.33047 42.4668 5.96387 40.5668 5.96387 38.6668ZM10.7972 38.6668C10.7972 41.2002 11.7305 43.4002 13.5305 45.2002C15.3305 47.0002 17.5639 47.9335 20.1639 47.9335H51.0972C53.6639 47.9335 55.8972 47.0335 57.7305 45.2002C59.5639 43.3668 60.4972 41.2002 60.4972 38.6668C60.4972 36.1335 59.5972 33.9335 57.7305 32.1335C55.8972 30.3335 53.6972 29.4002 51.0972 29.4002H46.4639C46.1305 29.4002 45.9639 29.2335 45.9639 28.9002L45.7305 27.2668C45.3972 24.1335 44.0639 21.5002 41.7639 19.4335C39.4639 17.3668 36.7305 16.3335 33.5972 16.3335C30.4639 16.3335 27.7305 17.3668 25.3972 19.4668C23.0639 21.5335 21.7639 24.1668 21.4639 27.2668L21.2305 28.6668C21.2305 29.0002 21.0639 29.1668 20.6972 29.1668L19.1972 29.4002C16.7972 29.6002 14.7972 30.6002 13.1639 32.3668C11.6305 34.1335 10.7972 36.2335 10.7972 38.6668ZM40.2972 9.60017C39.9639 9.90017 40.0305 10.1335 40.5305 10.3002C41.9639 10.9335 43.1639 11.5335 44.1305 12.1335C44.4972 12.2335 44.7639 12.2002 44.8639 12.0335C46.8972 10.1335 49.2305 9.16677 51.9305 9.16677C54.6305 9.16677 56.9305 10.0668 58.9305 11.8668C60.8972 13.6668 61.9972 15.9002 62.2305 18.5335L62.5305 20.6668H67.2639C69.4305 20.6668 71.2972 21.4335 72.8639 23.0002C74.4305 24.5668 75.1972 26.4002 75.1972 28.5335C75.1972 30.5335 74.4972 32.2668 73.1305 33.7668C71.7639 35.2668 70.0639 36.1002 68.0305 36.3335C67.6972 36.3335 67.5305 36.5002 67.5305 36.8668V40.6335C67.5305 41.0002 67.6972 41.1668 68.0305 41.1668C71.3972 40.9668 74.2305 39.6335 76.5305 37.2002C78.8305 34.7668 79.9972 31.8668 79.9972 28.5335C79.9972 25.0002 78.7639 22.0002 76.2639 19.5335C73.7639 17.0335 70.7639 15.8002 67.2639 15.8002H66.7639C65.8972 12.4668 64.0639 9.73347 61.2639 7.56677C58.4972 5.40017 55.3639 4.33347 51.9305 4.33347C47.2639 4.30017 43.3639 6.06677 40.2972 9.60017Z" fill="white"/>
<path d="M5.96387 38.6668C5.96387 35.3668 6.99717 32.4002 9.06387 29.8335C11.1305 27.2668 13.7639 25.6002 16.9972 24.8668C17.8639 20.9668 19.8305 17.7335 22.9305 15.2668C26.0305 12.7668 29.5972 11.5335 33.6639 11.5335C37.5972 11.5335 41.1305 12.7335 44.1972 15.1668C47.2972 17.6002 49.2972 20.7002 50.1972 24.5002H51.0972C55.0305 24.5002 58.3639 25.8668 61.1305 28.6335C63.8972 31.4002 65.2972 34.7335 65.2972 38.6335C65.2972 42.5668 63.8972 45.9002 61.1305 48.6668C58.3639 51.4335 55.0305 52.8335 51.0972 52.8335H20.1972C18.2639 52.8335 16.4305 52.4668 14.6972 51.7002C12.9639 50.9335 11.3972 50.0002 10.1305 48.7335C8.86387 47.4668 7.86387 45.9335 7.09717 44.2002C6.33047 42.4668 5.96387 40.5668 5.96387 38.6668ZM10.7972 38.6668C10.7972 41.2002 11.7305 43.4002 13.5305 45.2002C15.3305 47.0002 17.5639 47.9335 20.1639 47.9335H51.0972C53.6639 47.9335 55.8972 47.0335 57.7305 45.2002C59.5639 43.3668 60.4972 41.2002 60.4972 38.6668C60.4972 36.1335 59.5972 33.9335 57.7305 32.1335C55.8972 30.3335 53.6972 29.4002 51.0972 29.4002H46.4639C46.1305 29.4002 45.9639 29.2335 45.9639 28.9002L45.7305 27.2668C45.3972 24.1335 44.0639 21.5002 41.7639 19.4335C39.4639 17.3668 36.7305 16.3335 33.5972 16.3335C30.4639 16.3335 27.7305 17.3668 25.3972 19.4668C23.0639 21.5335 21.7639 24.1668 21.4639 27.2668L21.2305 28.6668C21.2305 29.0002 21.0639 29.1668 20.6972 29.1668L19.1972 29.4002C16.7972 29.6002 14.7972 30.6002 13.1639 32.3668C11.6305 34.1335 10.7972 36.2335 10.7972 38.6668ZM40.2972 9.60017C39.9639 9.90017 40.0305 10.1335 40.5305 10.3002C41.9639 10.9335 43.1639 11.5335 44.1305 12.1335C44.4972 12.2335 44.7639 12.2002 44.8639 12.0335C46.8972 10.1335 49.2305 9.16677 51.9305 9.16677C54.6305 9.16677 56.9305 10.0668 58.9305 11.8668C60.8972 13.6668 61.9972 15.9002 62.2305 18.5335L62.5305 20.6668H67.2639C69.4305 20.6668 71.2972 21.4335 72.8639 23.0002C74.4305 24.5668 75.1972 26.4002 75.1972 28.5335C75.1972 30.5335 74.4972 32.2668 73.1305 33.7668C71.7639 35.2668 70.0639 36.1002 68.0305 36.3335C67.6972 36.3335 67.5305 36.5002 67.5305 36.8668V40.6335C67.5305 41.0002 67.6972 41.1668 68.0305 41.1668C71.3972 40.9668 74.2305 39.6335 76.5305 37.2002C78.8305 34.7668 79.9972 31.8668 79.9972 28.5335C79.9972 25.0002 78.7639 22.0002 76.2639 19.5335C73.7639 17.0335 70.7639 15.8002 67.2639 15.8002H66.7639C65.8972 12.4668 64.0639 9.73347 61.2639 7.56677C58.4972 5.40017 55.3639 4.33347 51.9305 4.33347C47.2639 4.30017 43.3639 6.06677 40.2972 9.60017Z" fill="url(#paint0_linear_2033_1023)"/>
<defs>
<linearGradient id="paint0_linear_2033_1023" x1="12.6592" y1="83.5504" x2="36.3521" y2="11.5929" gradientUnits="userSpaceOnUse">
<stop stop-color="#02020A"/>
<stop offset="1" stop-color="#124DF1"/>
</linearGradient>
</defs>
</svg>
