<svg width="96" height="76" viewBox="0 0 96 76" fill="none" xmlns="http://www.w3.org/2000/svg">
<path d="M3.2002 56.3332C3.2002 59.3332 3.93353 62.0998 5.4002 64.6332C6.86687 67.1665 8.86684 69.1665 11.4002 70.6332C13.9335 72.0998 16.6668 72.8332 19.6335 72.8332H55.7335C58.7002 72.8332 61.4668 72.0998 64.0002 70.6332C66.5335 69.1665 68.5668 67.1665 70.0335 64.6332C71.5002 62.0998 72.2668 59.3332 72.2668 56.3332C72.2668 54.1332 71.8002 51.8998 70.8668 49.6665C73.4002 46.5998 74.6668 42.8998 74.6668 38.6665C74.6668 36.2998 74.2002 34.0332 73.3002 31.8665C72.4002 29.6998 71.1335 27.8665 69.5668 26.2998C68.0002 24.7332 66.1668 23.4665 64.0002 22.5665C61.8335 21.6332 59.5668 21.1998 57.2002 21.1998C52.2668 21.1998 47.9668 23.1332 44.2668 26.9998C41.7002 25.5332 38.7002 24.7998 35.2668 24.7998C30.5668 24.7998 26.4335 26.2665 22.8335 29.1665C19.2335 32.0665 16.9002 35.7998 15.9002 40.3332C12.1668 41.1998 9.13354 43.0998 6.76686 46.0998C4.40019 49.0998 3.2002 52.4998 3.2002 56.3332ZM8.90024 56.3332C8.90024 53.5332 9.83354 51.1332 11.7002 49.0998C13.5668 47.0665 15.9002 45.8998 18.7002 45.5665L20.3668 45.4665C20.7668 45.4665 21.0002 45.2665 21.0002 44.8665L21.2335 43.0665C21.7002 39.4665 23.2668 36.4332 25.9335 34.0332C28.6002 31.5998 31.7335 30.3998 35.3001 30.3998C38.9668 30.3998 42.1668 31.6332 44.8668 34.0665C47.6002 36.4998 49.1002 39.4998 49.4335 43.0998L49.6668 45.0332C49.7335 45.3998 49.9668 45.5998 50.3668 45.5998H55.7335C58.6668 45.5998 61.2002 46.6665 63.3335 48.7998C65.4668 50.9332 66.5335 53.4332 66.5335 56.3665C66.5335 59.3998 65.4668 61.9665 63.3668 64.0998C61.2668 66.2332 58.7002 67.2998 55.7668 67.2998H19.6335C16.7002 67.2998 14.2002 66.2332 12.0668 64.0665C9.96685 61.8998 8.90024 59.3332 8.90024 56.3332ZM31.2335 15.4332C31.2335 16.2332 31.5002 16.9332 32.0335 17.5332L34.2335 19.6665C35.0668 20.2998 35.7668 20.5665 36.3668 20.4998C37.0668 20.4998 37.6668 20.1998 38.2002 19.6332C38.7335 19.0665 39.0002 18.3665 39.0002 17.5665C39.0002 16.7665 38.7002 16.0998 38.1335 15.5998L36.1668 13.3998C35.5668 12.8665 34.9002 12.5998 34.1335 12.5998C33.3335 12.5998 32.6335 12.8665 32.0668 13.4332C31.5002 13.9665 31.2335 14.6332 31.2335 15.4332ZM49.0335 30.1998C51.3335 27.9665 54.0668 26.8665 57.2002 26.8665C60.5002 26.8665 63.3002 27.9998 65.6002 30.2998C67.9002 32.5998 69.0668 35.3665 69.0668 38.6665C69.0668 40.7332 68.5002 42.7998 67.3668 44.7998C64.1335 41.5998 60.2668 39.9998 55.7335 39.9998H54.6668C53.8335 36.3665 51.9668 33.0998 49.0335 30.1998ZM54.4668 12.5998C54.4668 13.4665 54.7335 14.1332 55.2335 14.6665C55.7335 15.1998 56.4002 15.4332 57.2002 15.4332C58.0668 15.4332 58.7335 15.1665 59.2668 14.6665C59.8002 14.1332 60.0335 13.4665 60.0335 12.5998V5.76653C60.0335 4.96653 59.7668 4.3332 59.2335 3.79986C58.7002 3.26653 58.0335 3.0332 57.2002 3.0332C56.4002 3.0332 55.7668 3.29986 55.2335 3.79986C54.7002 4.29986 54.4668 4.96653 54.4668 5.76653V12.5998ZM72.8668 20.2332C72.8668 21.0998 73.1002 21.7665 73.6002 22.2998C74.3002 22.8332 75.0002 23.0998 75.6668 23.0998C76.2668 23.0998 76.9335 22.8332 77.6335 22.2998L82.4002 17.5332C82.9335 16.9332 83.2002 16.2332 83.2002 15.3998C83.2002 14.5998 82.9335 13.9332 82.4002 13.3998C81.8668 12.8665 81.2002 12.5998 80.4335 12.5998C79.6335 12.5998 79.0002 12.8665 78.5002 13.3998L73.6002 18.1665C73.1002 18.7998 72.8668 19.4665 72.8668 20.2332ZM75.5002 59.6998C75.5002 60.4998 75.7668 61.1998 76.3335 61.7998L78.5002 63.8998C79.0002 64.4332 79.6335 64.6998 80.4335 64.6998C81.2335 64.6998 81.9002 64.4332 82.4335 63.8665C82.9668 63.2998 83.2335 62.6332 83.2335 61.7998C83.2335 61.0665 82.9668 60.3998 82.4335 59.8665L80.2668 57.6998C79.7335 57.1665 79.1002 56.8998 78.3668 56.8998C77.5668 56.8998 76.9002 57.1665 76.3668 57.6998C75.8002 58.2332 75.5002 58.8998 75.5002 59.6998ZM80.4002 38.6665C80.4002 39.4332 80.7002 40.0665 81.2668 40.5998C81.8002 41.1332 82.5002 41.3998 83.3002 41.3998H90.1002C90.8668 41.3998 91.5002 41.1332 92.0335 40.6332C92.5668 40.1332 92.8002 39.4665 92.8002 38.6665C92.8002 37.8665 92.5335 37.1998 92.0335 36.6665C91.5335 36.1332 90.8668 35.8332 90.1002 35.8332H83.3002C82.5002 35.8332 81.8335 36.0998 81.2668 36.6665C80.6668 37.2332 80.4002 37.8998 80.4002 38.6665Z" fill="white"/>
<path d="M3.2002 56.3332C3.2002 59.3332 3.93353 62.0998 5.4002 64.6332C6.86687 67.1665 8.86684 69.1665 11.4002 70.6332C13.9335 72.0998 16.6668 72.8332 19.6335 72.8332H55.7335C58.7002 72.8332 61.4668 72.0998 64.0002 70.6332C66.5335 69.1665 68.5668 67.1665 70.0335 64.6332C71.5002 62.0998 72.2668 59.3332 72.2668 56.3332C72.2668 54.1332 71.8002 51.8998 70.8668 49.6665C73.4002 46.5998 74.6668 42.8998 74.6668 38.6665C74.6668 36.2998 74.2002 34.0332 73.3002 31.8665C72.4002 29.6998 71.1335 27.8665 69.5668 26.2998C68.0002 24.7332 66.1668 23.4665 64.0002 22.5665C61.8335 21.6332 59.5668 21.1998 57.2002 21.1998C52.2668 21.1998 47.9668 23.1332 44.2668 26.9998C41.7002 25.5332 38.7002 24.7998 35.2668 24.7998C30.5668 24.7998 26.4335 26.2665 22.8335 29.1665C19.2335 32.0665 16.9002 35.7998 15.9002 40.3332C12.1668 41.1998 9.13354 43.0998 6.76686 46.0998C4.40019 49.0998 3.2002 52.4998 3.2002 56.3332ZM8.90024 56.3332C8.90024 53.5332 9.83354 51.1332 11.7002 49.0998C13.5668 47.0665 15.9002 45.8998 18.7002 45.5665L20.3668 45.4665C20.7668 45.4665 21.0002 45.2665 21.0002 44.8665L21.2335 43.0665C21.7002 39.4665 23.2668 36.4332 25.9335 34.0332C28.6002 31.5998 31.7335 30.3998 35.3001 30.3998C38.9668 30.3998 42.1668 31.6332 44.8668 34.0665C47.6002 36.4998 49.1002 39.4998 49.4335 43.0998L49.6668 45.0332C49.7335 45.3998 49.9668 45.5998 50.3668 45.5998H55.7335C58.6668 45.5998 61.2002 46.6665 63.3335 48.7998C65.4668 50.9332 66.5335 53.4332 66.5335 56.3665C66.5335 59.3998 65.4668 61.9665 63.3668 64.0998C61.2668 66.2332 58.7002 67.2998 55.7668 67.2998H19.6335C16.7002 67.2998 14.2002 66.2332 12.0668 64.0665C9.96685 61.8998 8.90024 59.3332 8.90024 56.3332ZM31.2335 15.4332C31.2335 16.2332 31.5002 16.9332 32.0335 17.5332L34.2335 19.6665C35.0668 20.2998 35.7668 20.5665 36.3668 20.4998C37.0668 20.4998 37.6668 20.1998 38.2002 19.6332C38.7335 19.0665 39.0002 18.3665 39.0002 17.5665C39.0002 16.7665 38.7002 16.0998 38.1335 15.5998L36.1668 13.3998C35.5668 12.8665 34.9002 12.5998 34.1335 12.5998C33.3335 12.5998 32.6335 12.8665 32.0668 13.4332C31.5002 13.9665 31.2335 14.6332 31.2335 15.4332ZM49.0335 30.1998C51.3335 27.9665 54.0668 26.8665 57.2002 26.8665C60.5002 26.8665 63.3002 27.9998 65.6002 30.2998C67.9002 32.5998 69.0668 35.3665 69.0668 38.6665C69.0668 40.7332 68.5002 42.7998 67.3668 44.7998C64.1335 41.5998 60.2668 39.9998 55.7335 39.9998H54.6668C53.8335 36.3665 51.9668 33.0998 49.0335 30.1998ZM54.4668 12.5998C54.4668 13.4665 54.7335 14.1332 55.2335 14.6665C55.7335 15.1998 56.4002 15.4332 57.2002 15.4332C58.0668 15.4332 58.7335 15.1665 59.2668 14.6665C59.8002 14.1332 60.0335 13.4665 60.0335 12.5998V5.76653C60.0335 4.96653 59.7668 4.3332 59.2335 3.79986C58.7002 3.26653 58.0335 3.0332 57.2002 3.0332C56.4002 3.0332 55.7668 3.29986 55.2335 3.79986C54.7002 4.29986 54.4668 4.96653 54.4668 5.76653V12.5998ZM72.8668 20.2332C72.8668 21.0998 73.1002 21.7665 73.6002 22.2998C74.3002 22.8332 75.0002 23.0998 75.6668 23.0998C76.2668 23.0998 76.9335 22.8332 77.6335 22.2998L82.4002 17.5332C82.9335 16.9332 83.2002 16.2332 83.2002 15.3998C83.2002 14.5998 82.9335 13.9332 82.4002 13.3998C81.8668 12.8665 81.2002 12.5998 80.4335 12.5998C79.6335 12.5998 79.0002 12.8665 78.5002 13.3998L73.6002 18.1665C73.1002 18.7998 72.8668 19.4665 72.8668 20.2332ZM75.5002 59.6998C75.5002 60.4998 75.7668 61.1998 76.3335 61.7998L78.5002 63.8998C79.0002 64.4332 79.6335 64.6998 80.4335 64.6998C81.2335 64.6998 81.9002 64.4332 82.4335 63.8665C82.9668 63.2998 83.2335 62.6332 83.2335 61.7998C83.2335 61.0665 82.9668 60.3998 82.4335 59.8665L80.2668 57.6998C79.7335 57.1665 79.1002 56.8998 78.3668 56.8998C77.5668 56.8998 76.9002 57.1665 76.3668 57.6998C75.8002 58.2332 75.5002 58.8998 75.5002 59.6998ZM80.4002 38.6665C80.4002 39.4332 80.7002 40.0665 81.2668 40.5998C81.8002 41.1332 82.5002 41.3998 83.3002 41.3998H90.1002C90.8668 41.3998 91.5002 41.1332 92.0335 40.6332C92.5668 40.1332 92.8002 39.4665 92.8002 38.6665C92.8002 37.8665 92.5335 37.1998 92.0335 36.6665C91.5335 36.1332 90.8668 35.8332 90.1002 35.8332H83.3002C82.5002 35.8332 81.8335 36.0998 81.2668 36.6665C80.6668 37.2332 80.4002 37.8998 80.4002 38.6665Z" fill="url(#paint0_linear_2033_1025)"/>
<defs>
<linearGradient id="paint0_linear_2033_1025" x1="11.3033" y1="117.04" x2="50.2721" y2="17.5119" gradientUnits="userSpaceOnUse">
<stop stop-color="#02020A"/>
<stop offset="1" stop-color="#124DF1"/>
</linearGradient>
</defs>
</svg>
