<svg width="100" height="100" viewBox="0 0 100 100" fill="none" xmlns="http://www.w3.org/2000/svg">
<path d="M14.5664 48.733C14.5664 47.933 14.8331 47.233 15.3997 46.6664C15.9664 46.133 16.6664 45.8664 17.3997 45.8664H24.1997C24.9664 45.8664 25.5997 46.133 26.1331 46.6997C26.6331 47.2664 26.8997 47.933 26.8997 48.733C26.8997 49.533 26.6664 50.1997 26.1664 50.7664C25.6664 51.333 24.9997 51.5997 24.2331 51.5997H17.4331C16.6664 51.5997 15.9997 51.333 15.4331 50.7664C14.8664 50.1997 14.5664 49.533 14.5664 48.733ZM24.0997 71.833C24.0997 71.0664 24.3664 70.3997 24.8664 69.7997L29.7664 65.0331C30.2664 64.4997 30.9331 64.2664 31.7331 64.2664C32.5331 64.2664 33.1997 64.533 33.7331 65.0331C34.2664 65.5331 34.5331 66.1664 34.5331 66.933C34.5331 67.733 34.2664 68.4664 33.7331 69.0664L28.9997 73.7997C27.6331 74.8664 26.2664 74.8664 24.8997 73.7997C24.3664 73.2664 24.0997 72.5997 24.0997 71.833ZM24.0997 25.6997C24.0997 24.933 24.3664 24.2664 24.8664 23.6664C25.5331 23.0997 26.2331 22.833 26.9997 22.833C27.7331 22.833 28.3997 23.0997 28.9664 23.633L33.7331 28.533C34.2664 29.033 34.5331 29.6997 34.5331 30.4997C34.5331 31.2997 34.2664 31.9664 33.7331 32.4997C33.1997 33.033 32.5331 33.2997 31.7331 33.2997C30.9331 33.2997 30.2664 33.033 29.7664 32.4997L24.8997 27.733C24.3664 27.1997 24.0997 26.4997 24.0997 25.6997ZM32.5997 48.733C32.5997 45.633 33.3664 42.733 34.9331 40.0664C36.4997 37.3997 38.5997 35.2664 41.2997 33.6997C43.9997 32.133 46.8664 31.3664 49.9664 31.3664C52.2997 31.3664 54.5331 31.833 56.6997 32.7664C58.8331 33.6997 60.6997 34.933 62.2331 36.4997C63.7997 38.0664 65.0331 39.8997 65.9331 42.033C66.8331 44.1664 67.2997 46.433 67.2997 48.7664C67.2997 51.8997 66.5331 54.7997 64.9664 57.4664C63.3997 60.133 61.2997 62.233 58.6331 63.7997C55.9664 65.3664 53.0664 66.133 49.9331 66.133C46.7997 66.133 43.8997 65.3664 41.2331 63.7997C38.5664 62.233 36.4664 60.133 34.8997 57.4664C33.3997 54.7664 32.5997 51.8664 32.5997 48.733ZM38.2664 48.733C38.2664 51.9997 39.3997 54.7664 41.6997 57.0664C43.9664 59.3664 46.7331 60.533 49.9997 60.533C53.2664 60.533 56.0331 59.3664 58.3331 57.0664C60.6331 54.7664 61.7997 51.9997 61.7997 48.733C61.7997 45.533 60.6331 42.7997 58.3331 40.4997C56.0331 38.233 53.2664 37.0997 49.9997 37.0997C46.7664 37.0997 43.9997 38.233 41.7331 40.4997C39.3997 42.7997 38.2664 45.533 38.2664 48.733ZM47.1331 74.6664C47.1331 73.8664 47.3997 73.1997 47.9664 72.6664C48.5331 72.133 49.1997 71.8664 49.9664 71.8664C50.7664 71.8664 51.4664 72.133 51.9997 72.6664C52.5331 73.1997 52.7997 73.8664 52.7997 74.6664V81.2997C52.7997 82.0997 52.5331 82.7997 51.9664 83.3664C51.3997 83.9331 50.7331 84.1997 49.9664 84.1997C49.1997 84.1997 48.4997 83.9331 47.9664 83.3664C47.3997 82.7997 47.1331 82.0997 47.1331 81.2997V74.6664ZM47.1331 22.9997V16.1997C47.1331 15.433 47.3997 14.7664 47.9664 14.1997C48.5331 13.633 49.1997 13.333 49.9997 13.333C50.7997 13.333 51.4331 13.5997 51.9997 14.1664C52.5664 14.733 52.8331 15.3997 52.8331 16.1664V22.9997C52.8331 23.7664 52.5664 24.3997 51.9997 24.933C51.4331 25.4664 50.7664 25.6997 49.9997 25.6997C49.2331 25.6997 48.5331 25.433 47.9997 24.933C47.4664 24.433 47.1331 23.7664 47.1331 22.9997ZM65.5331 66.933C65.5331 66.1664 65.7997 65.5331 66.2997 65.0664C66.7997 64.5331 67.4331 64.2997 68.1664 64.2997C68.9664 64.2997 69.6331 64.5664 70.1664 65.0664L75.0331 69.8331C75.5664 70.3997 75.8331 71.0997 75.8331 71.8664C75.8331 72.633 75.5664 73.2997 75.0331 73.833C73.6997 74.8664 72.3664 74.8664 71.0331 73.833L66.2997 69.0997C65.7997 68.4997 65.5331 67.7997 65.5331 66.933ZM65.5331 30.533C65.5331 29.6997 65.7997 29.033 66.2997 28.5664L71.0331 23.6664C71.5997 23.133 72.2664 22.8664 72.9997 22.8664C73.7997 22.8664 74.4664 23.133 74.9997 23.6997C75.5664 24.2664 75.8331 24.933 75.8331 25.6997C75.8331 26.533 75.5664 27.233 75.0331 27.7664L70.1664 32.533C69.5664 33.0664 68.8997 33.333 68.1664 33.333C67.3997 33.333 66.7997 33.0664 66.2997 32.533C65.7997 31.9997 65.5331 31.333 65.5331 30.533ZM73.0664 48.733C73.0664 47.933 73.3331 47.2664 73.8664 46.6664C74.3997 46.133 75.0331 45.8664 75.7664 45.8664H82.4997C83.2664 45.8664 83.9331 46.1664 84.4997 46.733C85.0664 47.2997 85.3664 47.9664 85.3664 48.733C85.3664 49.4997 85.0664 50.1664 84.4997 50.733C83.9331 51.2997 83.2664 51.5664 82.4997 51.5664H75.7664C74.9997 51.5664 74.3331 51.2997 73.8331 50.733C73.3331 50.1664 73.0664 49.533 73.0664 48.733Z" fill="#124DF1"/>
</svg>
