<svg width="78" height="79" viewBox="0 0 78 79" fill="none" xmlns="http://www.w3.org/2000/svg">
<path d="M3.56641 39.733C3.56641 38.933 3.83311 38.233 4.39971 37.6664C4.96641 37.133 5.66641 36.8664 6.39971 36.8664H13.1997C13.9664 36.8664 14.5997 37.133 15.1331 37.6997C15.6331 38.2664 15.8997 38.933 15.8997 39.733C15.8997 40.533 15.6664 41.1997 15.1664 41.7664C14.6664 42.333 13.9997 42.5997 13.2331 42.5997H6.43311C5.66641 42.5997 4.99971 42.333 4.43311 41.7664C3.86641 41.1997 3.56641 40.533 3.56641 39.733ZM13.0997 62.833C13.0997 62.0664 13.3664 61.3997 13.8664 60.7997L18.7664 56.0331C19.2664 55.4997 19.9331 55.2664 20.7331 55.2664C21.5331 55.2664 22.1997 55.533 22.7331 56.0331C23.2664 56.5331 23.5331 57.1664 23.5331 57.933C23.5331 58.733 23.2664 59.4664 22.7331 60.0664L17.9997 64.7997C16.6331 65.8664 15.2664 65.8664 13.8997 64.7997C13.3664 64.2664 13.0997 63.5997 13.0997 62.833ZM13.0997 16.6997C13.0997 15.933 13.3664 15.2664 13.8664 14.6664C14.5331 14.0997 15.2331 13.833 15.9997 13.833C16.7331 13.833 17.3997 14.0997 17.9664 14.633L22.7331 19.533C23.2664 20.033 23.5331 20.6997 23.5331 21.4997C23.5331 22.2997 23.2664 22.9664 22.7331 23.4997C22.1997 24.033 21.5331 24.2997 20.7331 24.2997C19.9331 24.2997 19.2664 24.033 18.7664 23.4997L13.8997 18.733C13.3664 18.1997 13.0997 17.4997 13.0997 16.6997ZM21.5997 39.733C21.5997 36.633 22.3664 33.733 23.9331 31.0664C25.4997 28.3997 27.5997 26.2664 30.2997 24.6997C32.9997 23.133 35.8664 22.3664 38.9664 22.3664C41.2997 22.3664 43.5331 22.833 45.6997 23.7664C47.8331 24.6997 49.6997 25.933 51.2331 27.4997C52.7997 29.0664 54.0331 30.8997 54.9331 33.033C55.8331 35.1664 56.2997 37.433 56.2997 39.7664C56.2997 42.8997 55.5331 45.7997 53.9664 48.4664C52.3997 51.133 50.2997 53.233 47.6331 54.7997C44.9664 56.3664 42.0664 57.133 38.9331 57.133C35.7997 57.133 32.8997 56.3664 30.2331 54.7997C27.5664 53.233 25.4664 51.133 23.8997 48.4664C22.3997 45.7664 21.5997 42.8664 21.5997 39.733ZM27.2664 39.733C27.2664 42.9997 28.3997 45.7664 30.6997 48.0664C32.9664 50.3664 35.7331 51.533 38.9997 51.533C42.2664 51.533 45.0331 50.3664 47.3331 48.0664C49.6331 45.7664 50.7997 42.9997 50.7997 39.733C50.7997 36.533 49.6331 33.7997 47.3331 31.4997C45.0331 29.233 42.2664 28.0997 38.9997 28.0997C35.7664 28.0997 32.9997 29.233 30.7331 31.4997C28.3997 33.7997 27.2664 36.533 27.2664 39.733ZM36.1331 65.6664C36.1331 64.8664 36.3997 64.1997 36.9664 63.6664C37.5331 63.133 38.1997 62.8664 38.9664 62.8664C39.7664 62.8664 40.4664 63.133 40.9997 63.6664C41.5331 64.1997 41.7997 64.8664 41.7997 65.6664V72.2997C41.7997 73.0997 41.5331 73.7997 40.9664 74.3664C40.3997 74.9331 39.7331 75.1997 38.9664 75.1997C38.1997 75.1997 37.4997 74.9331 36.9664 74.3664C36.3997 73.7997 36.1331 73.0997 36.1331 72.2997V65.6664ZM36.1331 13.9997V7.19971C36.1331 6.43301 36.3997 5.76641 36.9664 5.19971C37.5331 4.63301 38.1997 4.33301 38.9997 4.33301C39.7997 4.33301 40.4331 4.59971 40.9997 5.16641C41.5664 5.73301 41.8331 6.39971 41.8331 7.16641V13.9997C41.8331 14.7664 41.5664 15.3997 40.9997 15.933C40.4331 16.4664 39.7664 16.6997 38.9997 16.6997C38.2331 16.6997 37.5331 16.433 36.9997 15.933C36.4664 15.433 36.1331 14.7664 36.1331 13.9997ZM54.5331 57.933C54.5331 57.1664 54.7997 56.5331 55.2997 56.0664C55.7997 55.5331 56.4331 55.2997 57.1664 55.2997C57.9664 55.2997 58.6331 55.5664 59.1664 56.0664L64.0331 60.8331C64.5664 61.3997 64.8331 62.0997 64.8331 62.8664C64.8331 63.633 64.5664 64.2997 64.0331 64.833C62.6997 65.8664 61.3664 65.8664 60.0331 64.833L55.2997 60.0997C54.7997 59.4997 54.5331 58.7997 54.5331 57.933ZM54.5331 21.533C54.5331 20.6997 54.7997 20.033 55.2997 19.5664L60.0331 14.6664C60.5997 14.133 61.2664 13.8664 61.9997 13.8664C62.7997 13.8664 63.4664 14.133 63.9997 14.6997C64.5664 15.2664 64.8331 15.933 64.8331 16.6997C64.8331 17.533 64.5664 18.233 64.0331 18.7664L59.1664 23.533C58.5664 24.0664 57.8997 24.333 57.1664 24.333C56.3997 24.333 55.7997 24.0664 55.2997 23.533C54.7997 22.9997 54.5331 22.333 54.5331 21.533ZM62.0664 39.733C62.0664 38.933 62.3331 38.2664 62.8664 37.6664C63.3997 37.133 64.0331 36.8664 64.7664 36.8664H71.4997C72.2664 36.8664 72.9331 37.1664 73.4997 37.733C74.0664 38.2997 74.3664 38.9664 74.3664 39.733C74.3664 40.4997 74.0664 41.1664 73.4997 41.733C72.9331 42.2997 72.2664 42.5664 71.4997 42.5664H64.7664C63.9997 42.5664 63.3331 42.2997 62.8331 41.733C62.3331 41.1664 62.0664 40.533 62.0664 39.733Z" fill="white"/>
<path d="M3.56641 39.733C3.56641 38.933 3.83311 38.233 4.39971 37.6664C4.96641 37.133 5.66641 36.8664 6.39971 36.8664H13.1997C13.9664 36.8664 14.5997 37.133 15.1331 37.6997C15.6331 38.2664 15.8997 38.933 15.8997 39.733C15.8997 40.533 15.6664 41.1997 15.1664 41.7664C14.6664 42.333 13.9997 42.5997 13.2331 42.5997H6.43311C5.66641 42.5997 4.99971 42.333 4.43311 41.7664C3.86641 41.1997 3.56641 40.533 3.56641 39.733ZM13.0997 62.833C13.0997 62.0664 13.3664 61.3997 13.8664 60.7997L18.7664 56.0331C19.2664 55.4997 19.9331 55.2664 20.7331 55.2664C21.5331 55.2664 22.1997 55.533 22.7331 56.0331C23.2664 56.5331 23.5331 57.1664 23.5331 57.933C23.5331 58.733 23.2664 59.4664 22.7331 60.0664L17.9997 64.7997C16.6331 65.8664 15.2664 65.8664 13.8997 64.7997C13.3664 64.2664 13.0997 63.5997 13.0997 62.833ZM13.0997 16.6997C13.0997 15.933 13.3664 15.2664 13.8664 14.6664C14.5331 14.0997 15.2331 13.833 15.9997 13.833C16.7331 13.833 17.3997 14.0997 17.9664 14.633L22.7331 19.533C23.2664 20.033 23.5331 20.6997 23.5331 21.4997C23.5331 22.2997 23.2664 22.9664 22.7331 23.4997C22.1997 24.033 21.5331 24.2997 20.7331 24.2997C19.9331 24.2997 19.2664 24.033 18.7664 23.4997L13.8997 18.733C13.3664 18.1997 13.0997 17.4997 13.0997 16.6997ZM21.5997 39.733C21.5997 36.633 22.3664 33.733 23.9331 31.0664C25.4997 28.3997 27.5997 26.2664 30.2997 24.6997C32.9997 23.133 35.8664 22.3664 38.9664 22.3664C41.2997 22.3664 43.5331 22.833 45.6997 23.7664C47.8331 24.6997 49.6997 25.933 51.2331 27.4997C52.7997 29.0664 54.0331 30.8997 54.9331 33.033C55.8331 35.1664 56.2997 37.433 56.2997 39.7664C56.2997 42.8997 55.5331 45.7997 53.9664 48.4664C52.3997 51.133 50.2997 53.233 47.6331 54.7997C44.9664 56.3664 42.0664 57.133 38.9331 57.133C35.7997 57.133 32.8997 56.3664 30.2331 54.7997C27.5664 53.233 25.4664 51.133 23.8997 48.4664C22.3997 45.7664 21.5997 42.8664 21.5997 39.733ZM27.2664 39.733C27.2664 42.9997 28.3997 45.7664 30.6997 48.0664C32.9664 50.3664 35.7331 51.533 38.9997 51.533C42.2664 51.533 45.0331 50.3664 47.3331 48.0664C49.6331 45.7664 50.7997 42.9997 50.7997 39.733C50.7997 36.533 49.6331 33.7997 47.3331 31.4997C45.0331 29.233 42.2664 28.0997 38.9997 28.0997C35.7664 28.0997 32.9997 29.233 30.7331 31.4997C28.3997 33.7997 27.2664 36.533 27.2664 39.733ZM36.1331 65.6664C36.1331 64.8664 36.3997 64.1997 36.9664 63.6664C37.5331 63.133 38.1997 62.8664 38.9664 62.8664C39.7664 62.8664 40.4664 63.133 40.9997 63.6664C41.5331 64.1997 41.7997 64.8664 41.7997 65.6664V72.2997C41.7997 73.0997 41.5331 73.7997 40.9664 74.3664C40.3997 74.9331 39.7331 75.1997 38.9664 75.1997C38.1997 75.1997 37.4997 74.9331 36.9664 74.3664C36.3997 73.7997 36.1331 73.0997 36.1331 72.2997V65.6664ZM36.1331 13.9997V7.19971C36.1331 6.43301 36.3997 5.76641 36.9664 5.19971C37.5331 4.63301 38.1997 4.33301 38.9997 4.33301C39.7997 4.33301 40.4331 4.59971 40.9997 5.16641C41.5664 5.73301 41.8331 6.39971 41.8331 7.16641V13.9997C41.8331 14.7664 41.5664 15.3997 40.9997 15.933C40.4331 16.4664 39.7664 16.6997 38.9997 16.6997C38.2331 16.6997 37.5331 16.433 36.9997 15.933C36.4664 15.433 36.1331 14.7664 36.1331 13.9997ZM54.5331 57.933C54.5331 57.1664 54.7997 56.5331 55.2997 56.0664C55.7997 55.5331 56.4331 55.2997 57.1664 55.2997C57.9664 55.2997 58.6331 55.5664 59.1664 56.0664L64.0331 60.8331C64.5664 61.3997 64.8331 62.0997 64.8331 62.8664C64.8331 63.633 64.5664 64.2997 64.0331 64.833C62.6997 65.8664 61.3664 65.8664 60.0331 64.833L55.2997 60.0997C54.7997 59.4997 54.5331 58.7997 54.5331 57.933ZM54.5331 21.533C54.5331 20.6997 54.7997 20.033 55.2997 19.5664L60.0331 14.6664C60.5997 14.133 61.2664 13.8664 61.9997 13.8664C62.7997 13.8664 63.4664 14.133 63.9997 14.6997C64.5664 15.2664 64.8331 15.933 64.8331 16.6997C64.8331 17.533 64.5664 18.233 64.0331 18.7664L59.1664 23.533C58.5664 24.0664 57.8997 24.333 57.1664 24.333C56.3997 24.333 55.7997 24.0664 55.2997 23.533C54.7997 22.9997 54.5331 22.333 54.5331 21.533ZM62.0664 39.733C62.0664 38.933 62.3331 38.2664 62.8664 37.6664C63.3997 37.133 64.0331 36.8664 64.7664 36.8664H71.4997C72.2664 36.8664 72.9331 37.1664 73.4997 37.733C74.0664 38.2997 74.3664 38.9664 74.3664 39.733C74.3664 40.4997 74.0664 41.1664 73.4997 41.733C72.9331 42.2997 72.2664 42.5664 71.4997 42.5664H64.7664C63.9997 42.5664 63.3331 42.2997 62.8331 41.733C62.3331 41.1664 62.0664 40.533 62.0664 39.733Z" fill="url(#paint0_linear_2033_1027)"/>
<defs>
<linearGradient id="paint0_linear_2033_1027" x1="9.9693" y1="120.082" x2="56.7565" y2="27.0796" gradientUnits="userSpaceOnUse">
<stop stop-color="#02020A"/>
<stop offset="1" stop-color="#124DF1"/>
</linearGradient>
</defs>
</svg>
