<svg width="100" height="100" viewBox="0 0 100 100" fill="none" xmlns="http://www.w3.org/2000/svg">
<path d="M15.4355 56.3663C15.4355 60.0663 16.5355 63.3663 18.7355 66.2663C20.9355 69.1663 23.7688 71.1663 27.2688 72.233L25.1022 77.833C25.0022 78.2996 25.1688 78.5663 25.5688 78.5663H32.6688L29.2022 91.1663H30.1355L43.3688 73.7663C43.5022 73.6329 43.5022 73.4663 43.4355 73.2996C43.3688 73.133 43.2022 73.0663 42.9688 73.0663H35.7022L43.9688 57.5996C44.1688 57.133 44.0355 56.8996 43.5022 56.8996H33.7022C33.4022 56.8996 33.1355 57.0663 32.9688 57.3663L29.3355 66.933C26.9688 66.333 25.0022 65.033 23.4355 63.0663C21.8688 61.0996 21.1022 58.8663 21.1022 56.3663C21.1022 53.5996 22.0355 51.1996 23.9022 49.1663C25.7688 47.133 28.1022 45.9663 30.9022 45.633L32.6355 45.3996C33.0688 45.3996 33.3022 45.1996 33.3022 44.833L33.5355 43.0996C33.8688 39.4996 35.3688 36.4663 38.0688 34.033C40.7688 31.5996 43.9355 30.3663 47.5688 30.3663C51.2022 30.3663 54.3688 31.5996 57.0688 34.033C59.8022 36.4663 61.3355 39.4996 61.7355 43.0996L61.9355 45.033C61.9355 45.433 62.1355 45.633 62.5688 45.633H67.9355C70.9688 45.633 73.5355 46.6996 75.6688 48.7996C77.8022 50.8996 78.8689 53.433 78.8689 56.3996C78.8689 59.233 77.8689 61.6996 75.9023 63.7663C73.9356 65.8329 71.5023 66.9663 68.6022 67.1996C68.1688 67.1996 67.9355 67.3996 67.9355 67.833V72.3996C67.9355 72.7663 68.1688 72.9663 68.6022 72.9663C70.7688 72.8996 72.8355 72.3996 74.8022 71.4996C76.7688 70.5996 78.4688 69.3996 79.8689 67.9329C81.2689 66.4663 82.4023 64.7329 83.2355 62.6996C84.0688 60.6996 84.5023 58.5996 84.5023 56.433C84.5023 53.433 83.7689 50.6663 82.2689 48.133C80.7689 45.5996 78.7688 43.5996 76.2355 42.133C73.7023 40.6663 70.9356 39.933 67.9688 39.933H66.9023C65.8023 35.4996 63.4688 31.8663 59.8689 29.0663C56.2689 26.2663 52.2022 24.833 47.6022 24.833C42.9022 24.833 38.7022 26.2996 35.0688 29.1996C31.4355 32.0996 29.1022 35.833 28.0688 40.3996C24.4022 41.2663 21.3688 43.1663 18.9688 46.1663C16.5688 49.1663 15.4355 52.533 15.4355 56.3663ZM42.6355 89.2329C42.6355 89.7663 42.8022 90.2663 43.1355 90.7663C43.4688 91.2663 44.0022 91.6329 44.6688 91.8329C45.1355 91.9329 45.4022 91.9996 45.5022 91.9996C45.8022 91.9996 46.2022 91.8996 46.7688 91.6663C47.4688 91.3663 47.9355 90.7663 48.1688 89.9329L49.1022 86.4329C49.3022 85.6996 49.2355 84.9996 48.8355 84.3329C48.4355 83.6663 47.8688 83.233 47.0688 82.9996C46.3355 82.7996 45.6355 82.8663 44.9688 83.2663C44.3022 83.6663 43.8355 84.233 43.6022 85.033L42.7022 88.3663C42.6688 88.933 42.6355 89.2329 42.6355 89.2329ZM47.1022 73.333C47.1022 73.7996 47.2688 74.2996 47.6022 74.7996C47.9356 75.2996 48.4356 75.6663 49.1022 75.8996C49.8355 76.133 50.5689 76.0996 51.2355 75.7329C51.9022 75.3663 52.3355 74.7996 52.5688 73.9996L53.5688 70.533C53.7688 69.7996 53.6688 69.0996 53.3022 68.433C52.9022 67.7663 52.3022 67.2996 51.5355 67.0663C50.7688 66.8663 50.0689 66.933 49.3689 67.333C48.6688 67.733 48.2355 68.2996 48.0023 69.0663L47.2022 72.4329C47.1355 72.9996 47.1022 73.2996 47.1022 73.333ZM56.5023 78.833C56.5023 79.3996 56.6688 79.9663 57.0355 80.5329C57.4022 81.0996 57.9356 81.4663 58.6022 81.6996C58.6688 81.6996 58.8022 81.733 59.0023 81.7663C59.1688 81.7996 59.3022 81.8329 59.4022 81.8329C59.8355 81.8329 60.2688 81.7663 60.6688 81.5663C61.3022 81.333 61.7688 80.6996 62.0355 79.6663L62.8689 76.2996C63.1022 75.5329 63.0355 74.7996 62.6688 74.0996C62.3022 73.3996 61.7355 72.9329 61.0023 72.6996C60.1688 72.4996 59.4022 72.5996 58.7355 72.9663C58.0689 73.3663 57.6356 73.9663 57.5023 74.733L56.6022 78.1663C56.5355 78.3663 56.5023 78.5996 56.5023 78.833ZM61.0355 62.8663C61.0022 63.3996 61.1688 63.8996 61.5355 64.433C61.9022 64.9663 62.4355 65.3663 63.1688 65.6996C63.4355 65.8329 63.7022 65.8996 64.0355 65.8996C64.4022 65.8996 64.7688 65.7996 65.1688 65.633C65.8688 65.2996 66.3356 64.6663 66.6356 63.733L67.6022 60.2996C67.6688 59.8663 67.7022 59.633 67.7022 59.5663C67.7022 58.9996 67.5355 58.4663 67.1688 57.9329C66.8022 57.3996 66.2688 57.0329 65.5355 56.8329C65.4688 56.8329 65.3355 56.7996 65.1688 56.7663C64.9688 56.6663 64.8355 56.6663 64.7355 56.6663C64.1688 56.6663 63.6355 56.833 63.1022 57.1663C62.5688 57.4996 62.2023 58.0329 62.0023 58.7663L61.1022 62.1329C61.0688 62.3996 61.0355 62.633 61.0355 62.8663Z" fill="#124DF1"/>
</svg>
