<svg width="79" height="82" viewBox="0 0 79 82" fill="none" xmlns="http://www.w3.org/2000/svg">
<path d="M4.43555 38.3663C4.43555 42.0663 5.53555 45.3663 7.73555 48.2663C9.93555 51.1663 12.7688 53.1663 16.2688 54.233L14.1022 59.833C14.0022 60.2996 14.1688 60.5663 14.5688 60.5663H21.6688L18.2022 73.1663H19.1355L32.3688 55.7663C32.5022 55.6329 32.5022 55.4663 32.4355 55.2996C32.3688 55.133 32.2022 55.0663 31.9688 55.0663H24.7022L32.9688 39.5996C33.1688 39.133 33.0355 38.8996 32.5022 38.8996H22.7022C22.4022 38.8996 22.1355 39.0663 21.9688 39.3663L18.3355 48.933C15.9688 48.333 14.0022 47.033 12.4355 45.0663C10.8688 43.0996 10.1022 40.8663 10.1022 38.3663C10.1022 35.5996 11.0355 33.1996 12.9022 31.1663C14.7688 29.133 17.1022 27.9663 19.9022 27.633L21.6355 27.3996C22.0688 27.3996 22.3022 27.1996 22.3022 26.833L22.5355 25.0996C22.8688 21.4996 24.3688 18.4663 27.0688 16.033C29.7688 13.5996 32.9355 12.3663 36.5688 12.3663C40.2022 12.3663 43.3688 13.5996 46.0688 16.033C48.8022 18.4663 50.3355 21.4996 50.7355 25.0996L50.9355 27.033C50.9355 27.433 51.1355 27.633 51.5688 27.633H56.9355C59.9688 27.633 62.5355 28.6996 64.6688 30.7996C66.8022 32.8996 67.8689 35.433 67.8689 38.3996C67.8689 41.233 66.8689 43.6996 64.9023 45.7663C62.9356 47.8329 60.5022 48.9663 57.6022 49.1996C57.1688 49.1996 56.9355 49.3996 56.9355 49.833V54.3996C56.9355 54.7663 57.1688 54.9663 57.6022 54.9663C59.7688 54.8996 61.8355 54.3996 63.8022 53.4996C65.7688 52.5996 67.4689 51.3996 68.8689 49.9329C70.2689 48.4663 71.4022 46.7329 72.2355 44.6996C73.0688 42.6996 73.5023 40.5996 73.5023 38.433C73.5023 35.433 72.7689 32.6663 71.2689 30.133C69.7689 27.5996 67.7688 25.5996 65.2355 24.133C62.7023 22.6663 59.9355 21.933 56.9688 21.933H55.9023C54.8023 17.4996 52.4689 13.8663 48.8689 11.0663C45.2689 8.26631 41.2022 6.83301 36.6022 6.83301C31.9022 6.83301 27.7022 8.29961 24.0688 11.1996C20.4355 14.0996 18.1022 17.833 17.0688 22.3996C13.4022 23.2663 10.3688 25.1663 7.96885 28.1663C5.56885 31.1663 4.43555 34.533 4.43555 38.3663ZM31.6355 71.2329C31.6355 71.7663 31.8022 72.2663 32.1355 72.7663C32.4688 73.2663 33.0022 73.6329 33.6688 73.8329C34.1355 73.9329 34.4022 73.9996 34.5022 73.9996C34.8022 73.9996 35.2022 73.8996 35.7688 73.6663C36.4688 73.3663 36.9355 72.7663 37.1688 71.9329L38.1022 68.4329C38.3022 67.6996 38.2355 66.9996 37.8355 66.3329C37.4355 65.6663 36.8688 65.233 36.0688 64.9996C35.3355 64.7996 34.6355 64.8663 33.9688 65.2663C33.3022 65.6663 32.8355 66.233 32.6022 67.033L31.7022 70.3663C31.6688 70.933 31.6355 71.2329 31.6355 71.2329ZM36.1022 55.333C36.1022 55.7996 36.2688 56.2996 36.6022 56.7996C36.9355 57.2996 37.4355 57.6663 38.1022 57.8996C38.8355 58.133 39.5688 58.0996 40.2355 57.7329C40.9022 57.3663 41.3355 56.7996 41.5688 55.9996L42.5688 52.533C42.7688 51.7996 42.6688 51.0996 42.3022 50.433C41.9022 49.7663 41.3022 49.2996 40.5355 49.0663C39.7688 48.8663 39.0689 48.933 38.3689 49.333C37.6689 49.733 37.2356 50.2996 37.0023 51.0663L36.2022 54.4329C36.1355 54.9996 36.1022 55.2996 36.1022 55.333ZM45.5023 60.833C45.5023 61.3996 45.6688 61.9663 46.0355 62.5329C46.4022 63.0996 46.9355 63.4663 47.6022 63.6996C47.6688 63.6996 47.8023 63.733 48.0023 63.7663C48.1689 63.7996 48.3022 63.8329 48.4022 63.8329C48.8355 63.8329 49.2688 63.7663 49.6688 63.5663C50.3022 63.333 50.7688 62.6996 51.0355 61.6663L51.8689 58.2996C52.1023 57.5329 52.0355 56.7996 51.6688 56.0996C51.3022 55.3996 50.7356 54.9329 50.0023 54.6996C49.1689 54.4996 48.4022 54.5996 47.7355 54.9663C47.0688 55.3663 46.6356 55.9663 46.5023 56.733L45.6022 60.1663C45.5355 60.3663 45.5023 60.5996 45.5023 60.833ZM50.0355 44.8663C50.0022 45.3996 50.1688 45.8996 50.5355 46.433C50.9022 46.9663 51.4355 47.3663 52.1688 47.6996C52.4355 47.8329 52.7022 47.8996 53.0355 47.8996C53.4022 47.8996 53.7688 47.7996 54.1688 47.633C54.8688 47.2996 55.3356 46.6663 55.6356 45.733L56.6022 42.2996C56.6688 41.8663 56.7022 41.633 56.7022 41.5663C56.7022 40.9996 56.5355 40.4663 56.1688 39.9329C55.8022 39.3996 55.2688 39.0329 54.5355 38.8329C54.4688 38.8329 54.3355 38.7996 54.1688 38.7663C53.9688 38.6663 53.8355 38.6663 53.7355 38.6663C53.1688 38.6663 52.6355 38.833 52.1022 39.1663C51.5688 39.4996 51.2023 40.0329 51.0023 40.7663L50.1022 44.1329C50.0688 44.3996 50.0355 44.633 50.0355 44.8663Z" fill="url(#paint0_linear_2033_1029)"/>
<defs>
<linearGradient id="paint0_linear_2033_1029" x1="10.6817" y1="116.538" x2="54.2588" y2="27.3828" gradientUnits="userSpaceOnUse">
<stop stop-color="#02020A"/>
<stop offset="1" stop-color="#124DF1"/>
</linearGradient>
</defs>
</svg>
