<svg width="100" height="100" viewBox="0 0 100 100" fill="none" xmlns="http://www.w3.org/2000/svg">
<path d="M15.4657 56.3332C15.4657 60.7665 16.9991 64.5665 20.0991 67.7665C23.1991 70.9665 26.9657 72.6665 31.4324 72.8665C31.7991 72.8665 31.9991 72.6665 31.9991 72.2999V67.8332C31.9991 67.4665 31.7991 67.2665 31.4324 67.2665C28.5657 67.1332 26.1657 65.9999 24.1657 63.8665C22.1657 61.7332 21.1657 59.2332 21.1657 56.3332C21.1657 53.5665 22.0991 51.1999 23.9657 49.1332C25.8324 47.0999 28.1657 45.8999 30.9324 45.5665L32.6991 45.4665C33.1324 45.4665 33.3657 45.2665 33.3657 44.8332L33.5657 43.0665C33.9324 39.4665 35.4324 36.4332 38.1324 34.0332C40.8324 31.5999 43.9991 30.3999 47.6324 30.3999C51.2657 30.3999 54.4324 31.5999 57.1324 34.0332C59.8324 36.4665 61.3657 39.4665 61.7657 43.0665L62.0324 44.9999C62.0324 45.3665 62.2324 45.5665 62.6324 45.5665H67.9991C70.9657 45.5665 73.5324 46.6332 75.6991 48.7665C77.8657 50.8999 78.9657 53.3999 78.9657 56.3332C78.9657 59.2332 77.9657 61.7332 75.9657 63.8665C73.9657 65.9999 71.5324 67.1332 68.6991 67.2665C68.2657 67.2665 68.0324 67.4665 68.0324 67.8332V72.2999C68.0324 72.6665 68.2657 72.8665 68.6991 72.8665C71.5991 72.7999 74.2657 71.9999 76.6991 70.4999C79.1324 68.9999 81.0657 66.9999 82.4657 64.4999C83.8657 61.9999 84.5657 59.2665 84.5657 56.3665C84.5657 53.3999 83.8324 50.6332 82.3324 48.1332C80.8657 45.6332 78.8324 43.6332 76.2991 42.1999C73.7657 40.7665 70.9657 39.9999 67.9991 39.9999H66.9324C65.8657 35.5332 63.4991 31.8999 59.9324 29.0665C56.3657 26.2332 52.2657 24.7999 47.6657 24.7999C42.9657 24.7999 38.7991 26.2665 35.1657 29.1665C31.5324 32.0665 29.1991 35.7999 28.1657 40.3332C24.4657 41.1999 21.4324 43.0999 19.0657 46.0999C16.6991 49.0999 15.4657 52.4999 15.4657 56.3332ZM33.6324 80.3332C33.9324 81.0332 34.4657 81.5665 35.1657 81.8665C35.8324 82.1999 36.5324 82.2332 37.2324 81.9332C37.9657 81.6332 38.4324 81.1332 38.7324 80.4332C39.0657 79.6999 39.0991 78.9999 38.7991 78.2999C38.5324 77.5999 37.9991 77.1332 37.2991 76.8332C36.6324 76.4665 35.9657 76.4332 35.2657 76.7332C34.5657 77.0332 34.0657 77.5332 33.7324 78.2999C33.3657 78.8665 33.3657 79.5332 33.6324 80.3332ZM35.7324 70.9332C35.7324 71.4665 35.8991 71.9665 36.2324 72.4332C36.5657 72.9332 37.0991 73.2665 37.7657 73.4999C38.3991 73.8665 39.0991 73.8999 39.8324 73.5332C40.5657 73.1999 41.0657 72.5332 41.2991 71.5332L44.2991 60.2665C44.4991 59.4332 44.4324 58.6999 44.0324 58.0332C43.6324 57.3665 43.0657 56.9665 42.2657 56.8332C41.9991 56.7665 41.7324 56.7332 41.4657 56.7332C40.9324 56.7332 40.3991 56.8999 39.8991 57.2332C39.3991 57.5665 39.0324 58.0665 38.8324 58.6999L35.8991 69.9999C35.7657 70.5332 35.7324 70.8332 35.7324 70.9332ZM41.9324 89.5665C41.9324 89.9665 41.9991 90.2999 42.1324 90.5332C42.4324 91.2665 42.9324 91.7665 43.6324 92.0332C43.9324 92.1999 44.2991 92.2999 44.7324 92.2999C44.9324 92.2999 45.2657 92.2332 45.7324 92.0999C46.4657 91.8332 46.9991 91.3332 47.2991 90.5999C47.6324 89.8665 47.6324 89.1332 47.2991 88.3999C46.9657 87.6665 46.4657 87.1665 45.7991 86.8665C45.1324 86.5665 44.4657 86.5665 43.7324 86.8665C43.0991 87.1332 42.6657 87.5332 42.3657 88.0665C42.0657 88.5999 41.9324 89.0999 41.9324 89.5665ZM44.3657 80.8665C44.3657 82.0999 45.0657 82.8999 46.4657 83.2999C46.8324 83.3999 47.0991 83.4332 47.2657 83.4332C47.7657 83.4332 48.1991 83.3332 48.5324 83.1665C49.2324 82.8999 49.6991 82.2665 49.9324 81.2665L55.4991 60.2999C55.6991 59.4999 55.6324 58.7999 55.2991 58.1332C54.9657 57.4999 54.3991 57.0665 53.6657 56.8665C53.3991 56.7999 53.0991 56.7665 52.7657 56.7665C52.2324 56.7665 51.6991 56.9332 51.1657 57.2665C50.6324 57.5999 50.2991 58.0999 50.1657 58.7332L44.4657 79.8665C44.3991 80.3332 44.3657 80.6665 44.3657 80.8665ZM55.7991 79.3332C55.7991 79.7332 55.8657 80.0999 56.0657 80.3999C56.3324 81.0332 56.8324 81.5332 57.5324 81.8665C57.8991 81.9999 58.2991 82.0999 58.6991 82.0999C58.8991 82.0999 59.2324 82.0332 59.6991 81.8999C60.3991 81.6332 60.9324 81.1332 61.2324 80.4332C61.4657 79.6999 61.4657 78.9999 61.1991 78.3332C60.9324 77.6665 60.4657 77.1665 59.7991 76.8332C59.0324 76.4665 58.3324 76.4332 57.6324 76.7332C56.9324 77.0332 56.4324 77.5332 56.0991 78.2999C55.8991 78.6332 55.7991 78.9665 55.7991 79.3332ZM58.2324 70.7665C58.2324 71.2332 58.3991 71.7332 58.7657 72.2665C59.1324 72.7999 59.6324 73.1665 60.2657 73.3665C60.7991 73.4665 61.0991 73.5332 61.1657 73.5332C61.4657 73.5332 61.8991 73.4332 62.3991 73.1999C63.0657 72.8999 63.4991 72.2999 63.7324 71.4665L66.7324 60.3332C66.7991 59.7665 66.8324 59.4665 66.8324 59.4665C66.8324 58.9332 66.6657 58.4332 66.3324 57.9332C65.9991 57.4332 65.4991 57.0999 64.8324 56.8999C64.5324 56.8332 64.2324 56.7999 63.9657 56.7999C63.4324 56.7999 62.8991 56.9665 62.3991 57.2999C61.8991 57.6332 61.5657 58.1332 61.3657 58.7999L58.3657 69.9999L58.2324 70.7665Z" fill="white"/>
</svg>
