<svg width="100" height="100" viewBox="0 0 100 100" fill="none" xmlns="http://www.w3.org/2000/svg">
<path d="M24.869 48.034C24.869 47.4007 25.1023 46.834 25.5357 46.3674C25.969 45.9007 26.5023 45.6674 27.1357 45.6674C27.769 45.6674 28.3357 45.9007 28.769 46.3674C29.2023 46.834 29.4357 47.3674 29.4357 48.034C29.4357 48.6674 29.2023 49.2007 28.769 49.634C28.3357 50.0674 27.769 50.3007 27.169 50.3007C26.569 50.3007 26.0023 50.0674 25.569 49.634C25.069 49.1674 24.869 48.634 24.869 48.034ZM31.469 48.034C31.469 47.4007 31.7023 46.834 32.1357 46.3674C32.569 45.9007 33.1023 45.6674 33.7357 45.6674H44.5023L36.9023 38.0674C36.4357 37.6674 36.2023 37.134 36.2023 36.5007C36.2023 35.8674 36.4357 35.334 36.9023 34.8674C37.369 34.4007 37.9023 34.1674 38.5357 34.1674C39.169 34.1674 39.7023 34.4007 40.169 34.8674L47.7357 42.434V31.734C47.7357 31.1007 47.969 30.534 48.4357 30.0674C48.9023 29.6007 49.4357 29.3674 50.1023 29.3674C50.7357 29.3674 51.269 29.6007 51.7023 30.0674C52.1357 30.534 52.369 31.0674 52.369 31.734V42.5007L60.0023 34.834C60.469 34.3674 61.0023 34.134 61.6023 34.134C62.2023 34.134 62.769 34.3674 63.2357 34.834C63.6357 35.3007 63.8357 35.834 63.8357 36.4674C63.8357 37.1007 63.6357 37.634 63.2357 38.034L55.6357 45.634H66.4023C67.0023 45.634 67.5357 45.8674 67.969 46.334C68.4023 46.8007 68.6357 47.334 68.6357 48.0007C68.6357 48.6007 68.4023 49.134 67.969 49.5674C67.5357 50.0007 67.0023 50.234 66.4023 50.234H55.6357L63.269 57.8674C63.669 58.2674 63.869 58.8007 63.869 59.434C63.869 60.0674 63.669 60.6007 63.269 61.0674C62.8023 61.534 62.2357 61.7674 61.6357 61.7674C61.0357 61.7674 60.469 61.534 60.0357 61.0674L52.4023 53.4007V64.2007C52.4023 64.834 52.169 65.4007 51.7357 65.834C51.3023 66.2674 50.769 66.5007 50.1357 66.5007C49.5023 66.5007 48.9357 66.2674 48.469 65.834C48.0023 65.4007 47.769 64.834 47.769 64.2007V53.4674L40.2023 61.034C39.7357 61.5007 39.2023 61.734 38.569 61.734C37.9357 61.734 37.4023 61.5007 36.9357 61.034C36.469 60.5674 36.2357 60.034 36.2357 59.4007C36.2357 58.7674 36.469 58.2674 36.9357 57.834L44.6023 50.2007H33.8023C33.169 50.2007 32.6357 49.9674 32.2023 49.534C31.669 49.1674 31.469 48.634 31.469 48.034ZM31.5023 64.1674C31.5023 63.5674 31.7357 63.0007 32.2023 62.5674C32.6023 62.1007 33.1357 61.8674 33.769 61.8674C34.4023 61.8674 34.9357 62.1007 35.4023 62.5674C35.869 63.034 36.1023 63.5674 36.1023 64.1674C36.1023 64.7674 35.869 65.334 35.4023 65.7674C34.9357 66.234 34.4023 66.4674 33.769 66.4674C33.1357 66.4674 32.6023 66.234 32.2023 65.7674C31.7357 65.334 31.5023 64.8007 31.5023 64.1674ZM31.5023 31.8007C31.5023 31.2007 31.7357 30.634 32.2023 30.2007C32.6023 29.734 33.1357 29.5007 33.769 29.5007C34.4023 29.5007 34.9357 29.734 35.4023 30.2007C35.869 30.6674 36.1023 31.2007 36.1023 31.8007C36.1023 32.4007 35.869 32.9674 35.4023 33.434C34.9357 33.9007 34.4023 34.134 33.769 34.134C33.1357 34.134 32.6023 33.9007 32.2023 33.434C31.7357 32.9674 31.5023 32.4007 31.5023 31.8007ZM47.669 70.834C47.669 70.234 47.9023 69.7007 48.369 69.2674C48.8357 68.834 49.369 68.6007 50.0357 68.6007C50.669 68.6007 51.2023 68.834 51.6357 69.2674C52.069 69.7007 52.3023 70.234 52.3023 70.834C52.3023 71.4674 52.069 72.034 51.6357 72.4674C51.2023 72.9007 50.669 73.134 50.0357 73.134C49.4023 73.134 48.8357 72.9007 48.369 72.4674C47.9023 72.034 47.669 71.5007 47.669 70.834ZM47.669 25.134C47.669 24.5007 47.9023 23.934 48.369 23.5007C48.8357 23.0674 49.369 22.834 50.0357 22.834C50.669 22.834 51.2023 23.0674 51.6357 23.5007C52.069 23.934 52.3023 24.5007 52.3023 25.134C52.3023 25.734 52.069 26.2674 51.6357 26.7007C51.2023 27.134 50.669 27.3674 50.0357 27.3674C49.4023 27.3674 48.8357 27.134 48.369 26.7007C47.9023 26.2674 47.669 25.734 47.669 25.134ZM63.9023 64.1674C63.9023 63.5674 64.1357 63.0007 64.6023 62.5674C65.0023 62.1007 65.5357 61.8674 66.169 61.8674C66.8023 61.8674 67.3357 62.1007 67.8023 62.5674C68.269 63.034 68.5023 63.5674 68.5023 64.1674C68.5023 64.7674 68.269 65.334 67.8023 65.7674C67.3357 66.234 66.8023 66.4674 66.169 66.4674C65.5357 66.4674 65.0023 66.234 64.6023 65.7674C64.1357 65.334 63.9023 64.8007 63.9023 64.1674ZM63.9023 31.8007C63.9023 31.2007 64.1357 30.634 64.6023 30.2007C65.0023 29.734 65.5357 29.5007 66.169 29.5007C66.8023 29.5007 67.3357 29.734 67.8023 30.2007C68.269 30.6674 68.5023 31.2007 68.5023 31.8007C68.5023 32.4007 68.269 32.9674 67.8023 33.434C67.3357 33.9007 66.8023 34.134 66.169 34.134C65.5357 34.134 65.0023 33.9007 64.6023 33.434C64.1357 32.9674 63.9023 32.4007 63.9023 31.8007ZM70.569 48.034C70.569 47.4007 70.8023 46.834 71.2357 46.3674C71.669 45.9007 72.2357 45.6674 72.869 45.6674C73.469 45.6674 74.0023 45.9007 74.4357 46.3674C74.869 46.834 75.1023 47.3674 75.1023 48.034C75.1023 48.634 74.869 49.1674 74.4357 49.6007C74.0023 50.034 73.469 50.2674 72.869 50.2674C72.2357 50.2674 71.669 50.034 71.2357 49.6007C70.8023 49.1674 70.569 48.634 70.569 48.034Z" fill="white"/>
</svg>
