<svg width="100" height="100" viewBox="0 0 100 100" fill="none" xmlns="http://www.w3.org/2000/svg">
<path d="M12.9641 58.6666C12.9641 55.3666 13.9974 52.4 16.0641 49.8333C18.1307 47.2666 20.7641 45.6 23.9974 44.8666C24.8641 40.9666 26.8307 37.7333 29.9307 35.2666C33.0307 32.7666 36.5974 31.5333 40.6641 31.5333C44.5974 31.5333 48.1307 32.7333 51.1974 35.1666C54.2974 37.6 56.2974 40.7 57.1974 44.5H58.0974C62.0307 44.5 65.3641 45.8666 68.1307 48.6333C70.8974 51.4 72.2974 54.7333 72.2974 58.6333C72.2974 62.5666 70.8974 65.9 68.1307 68.6666C65.3641 71.4333 62.0307 72.8333 58.0974 72.8333H27.1974C25.2641 72.8333 23.4307 72.4666 21.6974 71.7C19.9641 70.9333 18.3974 70 17.1307 68.7333C15.8641 67.4666 14.8641 65.9333 14.0974 64.2C13.3307 62.4666 12.9641 60.5666 12.9641 58.6666ZM17.7974 58.6666C17.7974 61.2 18.7307 63.4 20.5307 65.2C22.3307 67 24.5641 67.9333 27.1641 67.9333H58.0974C60.6641 67.9333 62.8974 67.0333 64.7307 65.2C66.5641 63.3666 67.4974 61.2 67.4974 58.6666C67.4974 56.1333 66.5974 53.9333 64.7307 52.1333C62.8974 50.3333 60.6974 49.4 58.0974 49.4H53.4641C53.1307 49.4 52.9641 49.2333 52.9641 48.9L52.7307 47.2666C52.3974 44.1333 51.0641 41.5 48.7641 39.4333C46.4641 37.3666 43.7307 36.3333 40.5974 36.3333C37.4641 36.3333 34.7307 37.3666 32.3974 39.4666C30.0641 41.5333 28.7641 44.1666 28.4641 47.2666L28.2307 48.6666C28.2307 49 28.0641 49.1666 27.6974 49.1666L26.1974 49.4C23.7974 49.6 21.7974 50.6 20.1641 52.3666C18.6307 54.1333 17.7974 56.2333 17.7974 58.6666ZM47.2974 29.6C46.9641 29.9 47.0307 30.1333 47.5307 30.3C48.9641 30.9333 50.1641 31.5333 51.1307 32.1333C51.4974 32.2333 51.7641 32.2 51.8641 32.0333C53.8974 30.1333 56.2307 29.1666 58.9307 29.1666C61.6307 29.1666 63.9307 30.0666 65.9307 31.8666C67.8974 33.6666 68.9974 35.9 69.2307 38.5333L69.5307 40.6666H74.2641C76.4307 40.6666 78.2974 41.4333 79.8641 43C81.4307 44.5666 82.1974 46.4 82.1974 48.5333C82.1974 50.5333 81.4974 52.2666 80.1307 53.7666C78.7641 55.2666 77.0641 56.1 75.0307 56.3333C74.6974 56.3333 74.5307 56.5 74.5307 56.8666V60.6333C74.5307 61 74.6974 61.1666 75.0307 61.1666C78.3974 60.9666 81.2307 59.6333 83.5307 57.2C85.8307 54.7666 86.9974 51.8666 86.9974 48.5333C86.9974 45 85.7641 42 83.2641 39.5333C80.7641 37.0333 77.7641 35.8 74.2641 35.8H73.7641C72.8974 32.4666 71.0641 29.7333 68.2641 27.5666C65.4974 25.4 62.3641 24.3333 58.9307 24.3333C54.2641 24.3 50.3641 26.0666 47.2974 29.6Z" fill="white"/>
</svg>
