<svg width="100" height="100" viewBox="0 0 100 100" fill="none" xmlns="http://www.w3.org/2000/svg">
<path d="M5.19995 56.3329C5.19995 59.3329 5.93328 62.0995 7.39995 64.6329C8.86662 67.1662 10.8666 69.1662 13.4 70.6329C15.9333 72.0995 18.6666 72.8329 21.6333 72.8329H57.7333C60.7 72.8329 63.4666 72.0995 66 70.6329C68.5333 69.1662 70.5666 67.1662 72.0333 64.6329C73.5 62.0995 74.2666 59.3329 74.2666 56.3329C74.2666 54.1329 73.8 51.8995 72.8666 49.6662C75.4 46.5995 76.6666 42.8995 76.6666 38.6662C76.6666 36.2995 76.2 34.0329 75.3 31.8662C74.4 29.6995 73.1333 27.8662 71.5666 26.2995C70 24.7329 68.1666 23.4662 66 22.5662C63.8333 21.6329 61.5666 21.1995 59.2 21.1995C54.2666 21.1995 49.9666 23.1329 46.2666 26.9995C43.7 25.5329 40.7 24.7995 37.2666 24.7995C32.5666 24.7995 28.4333 26.2662 24.8333 29.1662C21.2333 32.0662 18.9 35.7995 17.9 40.3329C14.1666 41.1995 11.1333 43.0995 8.76662 46.0995C6.39995 49.0995 5.19995 52.4995 5.19995 56.3329ZM10.9 56.3329C10.9 53.5329 11.8333 51.1329 13.7 49.0995C15.5666 47.0662 17.9 45.8995 20.7 45.5662L22.3666 45.4662C22.7666 45.4662 23 45.2662 23 44.8662L23.2333 43.0662C23.7 39.4662 25.2666 36.4329 27.9333 34.0329C30.6 31.5995 33.7333 30.3995 37.2999 30.3995C40.9666 30.3995 44.1666 31.6329 46.8666 34.0662C49.6 36.4995 51.1 39.4995 51.4333 43.0995L51.6666 45.0329C51.7333 45.3995 51.9666 45.5995 52.3666 45.5995H57.7333C60.6666 45.5995 63.2 46.6662 65.3333 48.7995C67.4666 50.9329 68.5333 53.4329 68.5333 56.3662C68.5333 59.3995 67.4666 61.9662 65.3666 64.0995C63.2666 66.2329 60.7 67.2995 57.7666 67.2995H21.6333C18.7 67.2995 16.2 66.2329 14.0666 64.0662C11.9666 61.8995 10.9 59.3329 10.9 56.3329ZM33.2333 15.4329C33.2333 16.2329 33.5 16.9329 34.0333 17.5329L36.2333 19.6662C37.0666 20.2995 37.7666 20.5662 38.3666 20.4995C39.0666 20.4995 39.6666 20.1995 40.2 19.6329C40.7333 19.0662 41 18.3662 41 17.5662C41 16.7662 40.7 16.0995 40.1333 15.5995L38.1666 13.3995C37.5666 12.8662 36.9 12.5995 36.1333 12.5995C35.3333 12.5995 34.6333 12.8662 34.0666 13.4329C33.5 13.9662 33.2333 14.6329 33.2333 15.4329ZM51.0333 30.1995C53.3333 27.9662 56.0666 26.8662 59.2 26.8662C62.5 26.8662 65.3 27.9995 67.6 30.2995C69.9 32.5995 71.0666 35.3662 71.0666 38.6662C71.0666 40.7329 70.5 42.7995 69.3666 44.7995C66.1333 41.5995 62.2666 39.9995 57.7333 39.9995H56.6666C55.8333 36.3662 53.9666 33.0995 51.0333 30.1995ZM56.4666 12.5995C56.4666 13.4662 56.7333 14.1329 57.2333 14.6662C57.7333 15.1995 58.4 15.4329 59.2 15.4329C60.0666 15.4329 60.7333 15.1662 61.2666 14.6662C61.8 14.1329 62.0333 13.4662 62.0333 12.5995V5.7662C62.0333 4.9662 61.7666 4.33287 61.2333 3.79953C60.7 3.2662 60.0333 3.03287 59.2 3.03287C58.4 3.03287 57.7666 3.29953 57.2333 3.79953C56.7 4.29953 56.4666 4.9662 56.4666 5.7662V12.5995ZM74.8666 20.2329C74.8666 21.0995 75.1 21.7662 75.6 22.2995C76.3 22.8329 77 23.0995 77.6666 23.0995C78.2666 23.0995 78.9333 22.8329 79.6333 22.2995L84.4 17.5329C84.9333 16.9329 85.2 16.2329 85.2 15.3995C85.2 14.5995 84.9333 13.9329 84.4 13.3995C83.8666 12.8662 83.2 12.5995 82.4333 12.5995C81.6333 12.5995 81 12.8662 80.5 13.3995L75.6 18.1662C75.1 18.7995 74.8666 19.4662 74.8666 20.2329ZM77.5 59.6995C77.5 60.4995 77.7666 61.1995 78.3333 61.7995L80.5 63.8995C81 64.4329 81.6333 64.6995 82.4333 64.6995C83.2333 64.6995 83.9 64.4329 84.4333 63.8662C84.9666 63.2995 85.2333 62.6329 85.2333 61.7995C85.2333 61.0662 84.9666 60.3995 84.4333 59.8662L82.2666 57.6995C81.7333 57.1662 81.1 56.8995 80.3666 56.8995C79.5666 56.8995 78.9 57.1662 78.3666 57.6995C77.8 58.2329 77.5 58.8995 77.5 59.6995ZM82.4 38.6662C82.4 39.4329 82.7 40.0662 83.2666 40.5995C83.8 41.1329 84.5 41.3995 85.3 41.3995H92.1C92.8666 41.3995 93.5 41.1329 94.0333 40.6329C94.5666 40.1329 94.8 39.4662 94.8 38.6662C94.8 37.8662 94.5333 37.1995 94.0333 36.6662C93.5333 36.1329 92.8666 35.8329 92.1 35.8329H85.3C84.5 35.8329 83.8333 36.0995 83.2666 36.6662C82.6666 37.2329 82.4 37.8995 82.4 38.6662Z" fill="white"/>
</svg>
