<svg width="100" height="100" viewBox="0 0 100 100" fill="none" xmlns="http://www.w3.org/2000/svg">
<path d="M14.566 48.7329C14.566 47.9329 14.8327 47.2329 15.3993 46.6663C15.966 46.1329 16.666 45.8663 17.3993 45.8663H24.1993C24.966 45.8663 25.5993 46.1329 26.1327 46.6996C26.6327 47.2663 26.8993 47.9329 26.8993 48.7329C26.8993 49.5329 26.666 50.1996 26.166 50.7663C25.666 51.3329 24.9993 51.5996 24.2327 51.5996H17.4327C16.666 51.5996 15.9993 51.3329 15.4327 50.7663C14.866 50.1996 14.566 49.5329 14.566 48.7329ZM24.0993 71.8329C24.0993 71.0663 24.366 70.3996 24.866 69.7996L29.766 65.033C30.266 64.4996 30.9327 64.2663 31.7327 64.2663C32.5327 64.2663 33.1993 64.5329 33.7327 65.033C34.266 65.533 34.5327 66.1663 34.5327 66.9329C34.5327 67.7329 34.266 68.4663 33.7327 69.0663L28.9993 73.7996C27.6327 74.8663 26.266 74.8663 24.8993 73.7996C24.366 73.2663 24.0993 72.5996 24.0993 71.8329ZM24.0993 25.6996C24.0993 24.9329 24.366 24.2663 24.866 23.6663C25.5327 23.0996 26.2327 22.8329 26.9993 22.8329C27.7327 22.8329 28.3993 23.0996 28.966 23.6329L33.7327 28.5329C34.266 29.0329 34.5327 29.6996 34.5327 30.4996C34.5327 31.2996 34.266 31.9663 33.7327 32.4996C33.1993 33.0329 32.5327 33.2996 31.7327 33.2996C30.9327 33.2996 30.266 33.0329 29.766 32.4996L24.8993 27.7329C24.366 27.1996 24.0993 26.4996 24.0993 25.6996ZM32.5993 48.7329C32.5993 45.6329 33.366 42.7329 34.9327 40.0663C36.4993 37.3996 38.5993 35.2663 41.2993 33.6996C43.9993 32.1329 46.866 31.3663 49.966 31.3663C52.2993 31.3663 54.5327 31.8329 56.6993 32.7663C58.8327 33.6996 60.6993 34.9329 62.2327 36.4996C63.7993 38.0663 65.0327 39.8996 65.9327 42.0329C66.8327 44.1663 67.2993 46.4329 67.2993 48.7663C67.2993 51.8996 66.5327 54.7996 64.966 57.4663C63.3993 60.1329 61.2993 62.2329 58.6327 63.7996C55.966 65.3663 53.066 66.1329 49.9327 66.1329C46.7993 66.1329 43.8993 65.3663 41.2327 63.7996C38.566 62.2329 36.466 60.1329 34.8993 57.4663C33.3993 54.7663 32.5993 51.8663 32.5993 48.7329ZM38.266 48.7329C38.266 51.9996 39.3993 54.7663 41.6993 57.0663C43.966 59.3663 46.7327 60.5329 49.9993 60.5329C53.266 60.5329 56.0327 59.3663 58.3327 57.0663C60.6327 54.7663 61.7993 51.9996 61.7993 48.7329C61.7993 45.5329 60.6327 42.7996 58.3327 40.4996C56.0327 38.2329 53.266 37.0996 49.9993 37.0996C46.766 37.0996 43.9993 38.2329 41.7327 40.4996C39.3993 42.7996 38.266 45.5329 38.266 48.7329ZM47.1327 74.6663C47.1327 73.8663 47.3993 73.1996 47.966 72.6663C48.5327 72.1329 49.1993 71.8663 49.966 71.8663C50.766 71.8663 51.466 72.1329 51.9993 72.6663C52.5327 73.1996 52.7993 73.8663 52.7993 74.6663V81.2996C52.7993 82.0996 52.5327 82.7996 51.966 83.3663C51.3993 83.933 50.7327 84.1996 49.966 84.1996C49.1993 84.1996 48.4993 83.933 47.966 83.3663C47.3993 82.7996 47.1327 82.0996 47.1327 81.2996V74.6663ZM47.1327 22.9996V16.1996C47.1327 15.4329 47.3993 14.7663 47.966 14.1996C48.5327 13.6329 49.1993 13.3329 49.9993 13.3329C50.7993 13.3329 51.4327 13.5996 51.9993 14.1663C52.566 14.7329 52.8327 15.3996 52.8327 16.1663V22.9996C52.8327 23.7663 52.566 24.3996 51.9993 24.9329C51.4327 25.4663 50.766 25.6996 49.9993 25.6996C49.2327 25.6996 48.5327 25.4329 47.9993 24.9329C47.466 24.4329 47.1327 23.7663 47.1327 22.9996ZM65.5327 66.9329C65.5327 66.1663 65.7993 65.533 66.2993 65.0663C66.7993 64.533 67.4327 64.2996 68.166 64.2996C68.966 64.2996 69.6327 64.5663 70.166 65.0663L75.0327 69.833C75.566 70.3996 75.8327 71.0996 75.8327 71.8663C75.8327 72.6329 75.566 73.2996 75.0327 73.8329C73.6993 74.8663 72.366 74.8663 71.0327 73.8329L66.2993 69.0996C65.7993 68.4996 65.5327 67.7996 65.5327 66.9329ZM65.5327 30.5329C65.5327 29.6996 65.7993 29.0329 66.2993 28.5663L71.0327 23.6663C71.5993 23.1329 72.266 22.8663 72.9993 22.8663C73.7993 22.8663 74.466 23.1329 74.9993 23.6996C75.566 24.2663 75.8327 24.9329 75.8327 25.6996C75.8327 26.5329 75.566 27.2329 75.0327 27.7663L70.166 32.5329C69.566 33.0663 68.8993 33.3329 68.166 33.3329C67.3993 33.3329 66.7993 33.0663 66.2993 32.5329C65.7993 31.9996 65.5327 31.3329 65.5327 30.5329ZM73.066 48.7329C73.066 47.9329 73.3327 47.2663 73.866 46.6663C74.3993 46.1329 75.0327 45.8663 75.766 45.8663H82.4993C83.266 45.8663 83.9327 46.1663 84.4993 46.7329C85.066 47.2996 85.366 47.9663 85.366 48.7329C85.366 49.4996 85.066 50.1663 84.4993 50.7329C83.9327 51.2996 83.266 51.5663 82.4993 51.5663H75.766C74.9993 51.5663 74.3327 51.2996 73.8327 50.7329C73.3327 50.1663 73.066 49.5329 73.066 48.7329Z" fill="white"/>
</svg>
