<svg width="100" height="100" viewBox="0 0 100 100" fill="none" xmlns="http://www.w3.org/2000/svg">
<path d="M15.4359 56.3666C15.4359 60.0666 16.5359 63.3666 18.7359 66.2666C20.9359 69.1666 23.7692 71.1666 27.2692 72.2333L25.1026 77.8333C25.0026 78.2999 25.1692 78.5666 25.5692 78.5666H32.6692L29.2026 91.1666H30.1359L43.3692 73.7666C43.5026 73.6332 43.5026 73.4666 43.4359 73.2999C43.3692 73.1333 43.2026 73.0666 42.9692 73.0666H35.7026L43.9692 57.5999C44.1692 57.1333 44.0359 56.8999 43.5026 56.8999H33.7026C33.4026 56.8999 33.1359 57.0666 32.9692 57.3666L29.3359 66.9333C26.9692 66.3333 25.0026 65.0333 23.4359 63.0666C21.8692 61.0999 21.1026 58.8666 21.1026 56.3666C21.1026 53.5999 22.0359 51.1999 23.9026 49.1666C25.7692 47.1333 28.1026 45.9666 30.9026 45.6333L32.6359 45.3999C33.0692 45.3999 33.3026 45.1999 33.3026 44.8333L33.5359 43.0999C33.8692 39.4999 35.3692 36.4666 38.0692 34.0333C40.7692 31.5999 43.9359 30.3666 47.5692 30.3666C51.2026 30.3666 54.3692 31.5999 57.0692 34.0333C59.8026 36.4666 61.3359 39.4999 61.7359 43.0999L61.9359 45.0333C61.9359 45.4333 62.1359 45.6333 62.5692 45.6333H67.9359C70.9692 45.6333 73.5359 46.6999 75.6692 48.7999C77.8026 50.8999 78.8692 53.4333 78.8692 56.3999C78.8692 59.2333 77.8692 61.6999 75.9026 63.7666C73.9359 65.8332 71.5026 66.9666 68.6026 67.1999C68.1692 67.1999 67.9359 67.3999 67.9359 67.8333V72.3999C67.9359 72.7666 68.1692 72.9666 68.6026 72.9666C70.7692 72.8999 72.8359 72.3999 74.8026 71.4999C76.7692 70.5999 78.4692 69.3999 79.8692 67.9332C81.2692 66.4666 82.4026 64.7332 83.2359 62.6999C84.0692 60.6999 84.5026 58.5999 84.5026 56.4333C84.5026 53.4333 83.7692 50.6666 82.2692 48.1333C80.7692 45.5999 78.7692 43.5999 76.2359 42.1333C73.7026 40.6666 70.9359 39.9333 67.9692 39.9333H66.9026C65.8026 35.4999 63.4692 31.8666 59.8692 29.0666C56.2692 26.2666 52.2026 24.8333 47.6026 24.8333C42.9026 24.8333 38.7026 26.2999 35.0692 29.1999C31.4359 32.0999 29.1026 35.8333 28.0692 40.3999C24.4026 41.2666 21.3692 43.1666 18.9692 46.1666C16.5692 49.1666 15.4359 52.5333 15.4359 56.3666ZM42.6359 89.2332C42.6359 89.7666 42.8026 90.2666 43.1359 90.7666C43.4692 91.2666 44.0026 91.6332 44.6692 91.8332C45.1359 91.9332 45.4026 91.9999 45.5026 91.9999C45.8026 91.9999 46.2026 91.8999 46.7692 91.6666C47.4692 91.3666 47.9359 90.7666 48.1692 89.9332L49.1026 86.4332C49.3026 85.6999 49.2359 84.9999 48.8359 84.3332C48.4359 83.6666 47.8692 83.2333 47.0692 82.9999C46.3359 82.7999 45.6359 82.8666 44.9692 83.2666C44.3026 83.6666 43.8359 84.2333 43.6026 85.0333L42.7026 88.3666C42.6692 88.9333 42.6359 89.2332 42.6359 89.2332ZM47.1026 73.3333C47.1026 73.7999 47.2692 74.2999 47.6026 74.7999C47.9359 75.2999 48.4359 75.6666 49.1026 75.8999C49.8359 76.1333 50.5692 76.0999 51.2359 75.7332C51.9026 75.3666 52.3359 74.7999 52.5692 73.9999L53.5692 70.5333C53.7692 69.7999 53.6692 69.0999 53.3026 68.4333C52.9026 67.7666 52.3026 67.2999 51.5359 67.0666C50.7692 66.8666 50.0692 66.9333 49.3692 67.3333C48.6692 67.7333 48.2359 68.2999 48.0026 69.0666L47.2026 72.4332C47.1359 72.9999 47.1026 73.2999 47.1026 73.3333ZM56.5026 78.8333C56.5026 79.3999 56.6692 79.9666 57.0359 80.5332C57.4026 81.0999 57.9359 81.4666 58.6026 81.6999C58.6692 81.6999 58.8026 81.7333 59.0026 81.7666C59.1692 81.7999 59.3026 81.8332 59.4026 81.8332C59.8359 81.8332 60.2692 81.7666 60.6692 81.5666C61.3026 81.3333 61.7692 80.6999 62.0359 79.6666L62.8692 76.2999C63.1026 75.5332 63.0359 74.7999 62.6692 74.0999C62.3026 73.3999 61.7359 72.9332 61.0026 72.6999C60.1692 72.4999 59.4026 72.5999 58.7359 72.9666C58.0692 73.3666 57.6359 73.9666 57.5026 74.7333L56.6026 78.1666C56.5359 78.3666 56.5026 78.5999 56.5026 78.8333ZM61.0359 62.8666C61.0026 63.3999 61.1692 63.8999 61.5359 64.4333C61.9026 64.9666 62.4359 65.3666 63.1692 65.6999C63.4359 65.8332 63.7026 65.8999 64.0359 65.8999C64.4026 65.8999 64.7692 65.7999 65.1692 65.6333C65.8692 65.2999 66.3359 64.6666 66.6359 63.7333L67.6026 60.2999C67.6692 59.8666 67.7026 59.6333 67.7026 59.5666C67.7026 58.9999 67.5359 58.4666 67.1692 57.9332C66.8026 57.3999 66.2692 57.0332 65.5359 56.8332C65.4692 56.8332 65.3359 56.7999 65.1692 56.7666C64.9692 56.6666 64.8359 56.6666 64.7359 56.6666C64.1692 56.6666 63.6359 56.8333 63.1026 57.1666C62.5692 57.4999 62.2026 58.0332 62.0026 58.7666L61.1026 62.1332C61.0692 62.3999 61.0359 62.6333 61.0359 62.8666Z" fill="white"/>
</svg>
