<svg width="177" height="164" viewBox="0 0 177 164" fill="none" xmlns="http://www.w3.org/2000/svg">
<mask id="path-1-inside-1_76_771" fill="white">
<path d="M0 90.8058C0 92.8105 0.668235 94.444 2.07895 95.7804C3.48967 97.1169 5.27164 97.7109 7.42484 97.7109H19.9728C21.9775 97.7109 23.6852 97.0427 25.096 95.7062C26.5067 94.3697 27.2492 92.7362 27.2492 90.8058C27.2492 88.6526 26.5809 86.8706 25.1702 85.5342C23.7595 84.1977 22.0518 83.4552 20.0471 83.4552H7.42484C5.27164 83.4552 3.48967 84.1234 2.07895 85.5342C0.668235 86.7964 0 88.5783 0 90.8058ZM13.142 136.691C13.142 143.893 15.7407 150.13 21.0123 155.402C26.2839 160.674 32.4465 163.272 39.6486 163.272H90.583C97.7851 163.272 103.948 160.674 109.071 155.476C114.194 150.279 116.793 144.042 116.793 136.691C116.793 133.127 116.273 130.083 115.234 127.559C121.396 123.624 126.297 118.352 129.86 111.818C133.424 105.284 135.281 98.2306 135.281 90.7315C135.281 84.7174 134.093 78.926 131.717 73.4317C129.341 67.9373 126.148 63.1854 122.213 59.2502C118.278 55.3151 113.526 52.1224 108.031 49.7464C102.537 47.3705 96.8199 46.1825 90.8058 46.1825C82.7127 46.1825 75.2136 48.1872 68.3828 52.1966C61.5519 56.206 56.1318 61.6262 52.1966 68.3828C48.2615 75.2136 46.331 82.6385 46.331 90.7315V93.256C38.9062 97.4881 34.0058 103.651 31.6298 111.744C25.9869 113.526 21.532 116.644 18.1909 121.173C14.8497 125.703 13.142 130.9 13.142 136.691ZM24.7247 31.5556C24.7247 33.6345 25.393 35.3422 26.6552 36.5302L38.6092 49.0782C42.0988 51.7511 45.5885 51.7511 49.0782 49.0782C50.4889 47.6675 51.1571 45.9598 51.1571 43.8808C51.1571 41.8761 50.4889 40.1684 49.0782 38.6834L36.8272 26.4324C35.268 25.0217 33.486 24.2792 31.6298 24.2792C29.5509 24.2792 27.8431 24.9475 26.5809 26.3582C25.3187 27.7689 24.7247 29.4766 24.7247 31.5556ZM27.8431 136.691C27.8431 133.573 28.8084 130.9 30.8131 128.672C32.8178 126.445 35.3422 125.183 38.3864 124.886L42.9898 124.292C43.955 124.292 44.4748 123.698 44.4748 122.584L45.143 118.426C45.6628 114.12 47.4447 110.556 50.5632 107.734C53.6816 104.839 57.3198 103.428 61.5519 103.428C65.8583 103.428 69.645 104.839 72.7634 107.734C75.9561 110.63 77.8123 114.194 78.3321 118.426L78.926 123.252C79.3715 124.366 79.9655 124.96 80.708 124.96H90.5088C93.7015 124.96 96.4487 126.148 98.8246 128.45C101.201 130.751 102.314 133.499 102.314 136.766C102.314 140.107 101.126 142.928 98.8246 145.304C96.5229 147.68 93.7015 148.868 90.5088 148.868H39.6486C36.3075 148.868 33.486 147.68 31.2586 145.304C28.9569 142.928 27.8431 140.032 27.8431 136.691ZM60.6609 89.2466C61.1807 81.1535 64.2991 74.3226 70.0905 68.754C75.8076 63.2596 82.787 60.4382 90.8058 60.4382C99.0474 60.4382 106.101 63.4081 111.892 69.2738C117.684 75.1394 120.579 82.3415 120.579 90.7315C120.579 95.9289 119.317 100.755 116.793 105.21C114.268 109.665 110.853 113.229 106.546 115.976C102.166 112.338 97.1169 110.556 91.474 110.556C89.3208 104.022 85.4599 98.8989 80.0398 95.0379C74.6196 91.177 68.457 89.2466 61.6262 89.2466H60.6609ZM83.6037 24.2792C83.6037 26.2839 84.3462 28.0659 85.7569 29.4766C87.1676 30.8873 88.8753 31.6298 90.88 31.6298C92.959 31.6298 94.6667 30.8873 96.0774 29.4766C97.4881 28.0659 98.2306 26.3582 98.2306 24.2792V6.9051C98.2306 4.97464 97.4881 3.34118 96.0774 2.00471C94.6667 0.668235 92.959 0 90.88 0C88.8753 0 87.1676 0.668235 85.7569 2.00471C84.3462 3.34118 83.6037 4.97464 83.6037 6.9051V24.2792ZM130.529 137.36C130.529 139.364 131.197 141.072 132.533 142.557L144.71 154.585C147.829 157.704 151.318 157.704 155.179 154.585C156.516 153.323 157.11 151.689 157.11 149.536C157.11 147.532 156.441 145.898 155.179 144.562L142.631 132.162C141.295 130.9 139.587 130.306 137.582 130.306C135.503 130.306 133.87 130.974 132.533 132.311C131.197 133.647 130.529 135.355 130.529 137.36ZM130.529 43.7323C130.529 45.8113 131.197 47.5932 132.533 49.0782C133.87 50.4147 135.578 51.0829 137.582 51.0829C139.587 51.0829 141.295 50.4147 142.631 49.0782L155.179 36.5302C156.516 35.268 157.11 33.6345 157.11 31.5556C157.11 29.4766 156.367 27.7689 154.956 26.4324C153.546 25.096 151.838 24.3535 149.759 24.3535C147.829 24.3535 146.121 25.096 144.71 26.5067L132.533 38.6092C131.197 39.9456 130.529 41.6534 130.529 43.7323ZM149.685 90.8058C149.685 92.8105 150.353 94.444 151.764 95.7804C153.174 97.1169 154.956 97.7109 157.11 97.7109H169.658C171.662 97.7109 173.37 97.0427 174.781 95.7062C176.191 94.3697 176.934 92.7362 176.934 90.8058C176.934 88.6526 176.266 86.8706 174.855 85.5342C173.444 84.1977 171.737 83.4552 169.732 83.4552H157.184C155.031 83.4552 153.249 84.1234 151.838 85.5342C150.427 86.7964 149.685 88.5783 149.685 90.8058Z"/>
</mask>
<path d="M0 90.8058C0 92.8105 0.668235 94.444 2.07895 95.7804C3.48967 97.1169 5.27164 97.7109 7.42484 97.7109H19.9728C21.9775 97.7109 23.6852 97.0427 25.096 95.7062C26.5067 94.3697 27.2492 92.7362 27.2492 90.8058C27.2492 88.6526 26.5809 86.8706 25.1702 85.5342C23.7595 84.1977 22.0518 83.4552 20.0471 83.4552H7.42484C5.27164 83.4552 3.48967 84.1234 2.07895 85.5342C0.668235 86.7964 0 88.5783 0 90.8058ZM13.142 136.691C13.142 143.893 15.7407 150.13 21.0123 155.402C26.2839 160.674 32.4465 163.272 39.6486 163.272H90.583C97.7851 163.272 103.948 160.674 109.071 155.476C114.194 150.279 116.793 144.042 116.793 136.691C116.793 133.127 116.273 130.083 115.234 127.559C121.396 123.624 126.297 118.352 129.86 111.818C133.424 105.284 135.281 98.2306 135.281 90.7315C135.281 84.7174 134.093 78.926 131.717 73.4317C129.341 67.9373 126.148 63.1854 122.213 59.2502C118.278 55.3151 113.526 52.1224 108.031 49.7464C102.537 47.3705 96.8199 46.1825 90.8058 46.1825C82.7127 46.1825 75.2136 48.1872 68.3828 52.1966C61.5519 56.206 56.1318 61.6262 52.1966 68.3828C48.2615 75.2136 46.331 82.6385 46.331 90.7315V93.256C38.9062 97.4881 34.0058 103.651 31.6298 111.744C25.9869 113.526 21.532 116.644 18.1909 121.173C14.8497 125.703 13.142 130.9 13.142 136.691ZM24.7247 31.5556C24.7247 33.6345 25.393 35.3422 26.6552 36.5302L38.6092 49.0782C42.0988 51.7511 45.5885 51.7511 49.0782 49.0782C50.4889 47.6675 51.1571 45.9598 51.1571 43.8808C51.1571 41.8761 50.4889 40.1684 49.0782 38.6834L36.8272 26.4324C35.268 25.0217 33.486 24.2792 31.6298 24.2792C29.5509 24.2792 27.8431 24.9475 26.5809 26.3582C25.3187 27.7689 24.7247 29.4766 24.7247 31.5556ZM27.8431 136.691C27.8431 133.573 28.8084 130.9 30.8131 128.672C32.8178 126.445 35.3422 125.183 38.3864 124.886L42.9898 124.292C43.955 124.292 44.4748 123.698 44.4748 122.584L45.143 118.426C45.6628 114.12 47.4447 110.556 50.5632 107.734C53.6816 104.839 57.3198 103.428 61.5519 103.428C65.8583 103.428 69.645 104.839 72.7634 107.734C75.9561 110.63 77.8123 114.194 78.3321 118.426L78.926 123.252C79.3715 124.366 79.9655 124.96 80.708 124.96H90.5088C93.7015 124.96 96.4487 126.148 98.8246 128.45C101.201 130.751 102.314 133.499 102.314 136.766C102.314 140.107 101.126 142.928 98.8246 145.304C96.5229 147.68 93.7015 148.868 90.5088 148.868H39.6486C36.3075 148.868 33.486 147.68 31.2586 145.304C28.9569 142.928 27.8431 140.032 27.8431 136.691ZM60.6609 89.2466C61.1807 81.1535 64.2991 74.3226 70.0905 68.754C75.8076 63.2596 82.787 60.4382 90.8058 60.4382C99.0474 60.4382 106.101 63.4081 111.892 69.2738C117.684 75.1394 120.579 82.3415 120.579 90.7315C120.579 95.9289 119.317 100.755 116.793 105.21C114.268 109.665 110.853 113.229 106.546 115.976C102.166 112.338 97.1169 110.556 91.474 110.556C89.3208 104.022 85.4599 98.8989 80.0398 95.0379C74.6196 91.177 68.457 89.2466 61.6262 89.2466H60.6609ZM83.6037 24.2792C83.6037 26.2839 84.3462 28.0659 85.7569 29.4766C87.1676 30.8873 88.8753 31.6298 90.88 31.6298C92.959 31.6298 94.6667 30.8873 96.0774 29.4766C97.4881 28.0659 98.2306 26.3582 98.2306 24.2792V6.9051C98.2306 4.97464 97.4881 3.34118 96.0774 2.00471C94.6667 0.668235 92.959 0 90.88 0C88.8753 0 87.1676 0.668235 85.7569 2.00471C84.3462 3.34118 83.6037 4.97464 83.6037 6.9051V24.2792ZM130.529 137.36C130.529 139.364 131.197 141.072 132.533 142.557L144.71 154.585C147.829 157.704 151.318 157.704 155.179 154.585C156.516 153.323 157.11 151.689 157.11 149.536C157.11 147.532 156.441 145.898 155.179 144.562L142.631 132.162C141.295 130.9 139.587 130.306 137.582 130.306C135.503 130.306 133.87 130.974 132.533 132.311C131.197 133.647 130.529 135.355 130.529 137.36ZM130.529 43.7323C130.529 45.8113 131.197 47.5932 132.533 49.0782C133.87 50.4147 135.578 51.0829 137.582 51.0829C139.587 51.0829 141.295 50.4147 142.631 49.0782L155.179 36.5302C156.516 35.268 157.11 33.6345 157.11 31.5556C157.11 29.4766 156.367 27.7689 154.956 26.4324C153.546 25.096 151.838 24.3535 149.759 24.3535C147.829 24.3535 146.121 25.096 144.71 26.5067L132.533 38.6092C131.197 39.9456 130.529 41.6534 130.529 43.7323ZM149.685 90.8058C149.685 92.8105 150.353 94.444 151.764 95.7804C153.174 97.1169 154.956 97.7109 157.11 97.7109H169.658C171.662 97.7109 173.37 97.0427 174.781 95.7062C176.191 94.3697 176.934 92.7362 176.934 90.8058C176.934 88.6526 176.266 86.8706 174.855 85.5342C173.444 84.1977 171.737 83.4552 169.732 83.4552H157.184C155.031 83.4552 153.249 84.1234 151.838 85.5342C150.427 86.7964 149.685 88.5783 149.685 90.8058Z" fill="url(#paint0_linear_76_771)" stroke="white" stroke-width="1.64996" mask="url(#path-1-inside-1_76_771)"/>
<defs>
<linearGradient id="paint0_linear_76_771" x1="1.2775" y1="2.65244" x2="153.742" y2="167.874" gradientUnits="userSpaceOnUse">
<stop stop-color="#FF9E4A"/>
<stop offset="0.5" stop-color="#FF8A33"/>
<stop offset="1" stop-color="#FF6A00"/>
</linearGradient>
</defs>
</svg>
